<svg xmlns="http://www.w3.org/2000/svg" width="85.714" height="60" viewBox="0 0 85.714 60"><path d="M83.818,12.073l.107.692a10.8,10.8,0,0,0-7.386-7.454l-.075-.018C69.782,3.5,42.893,3.5,42.893,3.5S16.072,3.465,9.322,5.293a10.807,10.807,0,0,0-7.439,7.4l-.018.074a116.706,116.706,0,0,0,.111,42.166l-.111-.7a10.8,10.8,0,0,0,7.386,7.454l.075.018C16,63.5,42.9,63.5,42.9,63.5s26.818,0,33.571-1.8a10.8,10.8,0,0,0,7.443-7.4l.018-.074A109.086,109.086,0,0,0,85.714,34.3c0-.258,0-.519,0-.78,0-.24,0-.526,0-.812a112.545,112.545,0,0,0-1.9-20.633Zm-49.5,34.313V20.646L56.693,33.535Z" transform="translate(0 -3.5)" fill="#ff2d22"/></svg>