<svg xmlns="http://www.w3.org/2000/svg" width="93.953" height="104.089" viewBox="0 0 93.953 104.089"><path d="M0,2.529C16.854,3.545,26.268,14.388,33.823,27.7c7.775,13.691,9.7,28.252,6.309,44.288-4.658-7.761-6.8-16.659-15.23-22.832.368,2.241.228,3.446.745,4.205,5.361,7.892,8.841,16.608,11.555,25.681a16.112,16.112,0,0,0,1.315,3.353c1.6,2.813,3.812,3.341,6.535,1.638A10.61,10.61,0,0,0,46.9,82.5C52.231,77.134,57.623,71.853,65,69.051c-6.87-2.988-12.17.176-17.255,4.46,0-7.085.548-13.669-.1-20.131C45.725,34.39,37.867,18.3,22.276,6.805,18.216,3.814,13.042,2.13,8.157.53,4.658-.617,3.585.119,0,2.529Z" transform="translate(0 26.438) rotate(-24)"/></svg>