<svg xmlns="http://www.w3.org/2000/svg" width="281.125" height="174.524" viewBox="0 0 281.125 174.524"><path d="M319.916,272.951c42.341-15.623,85.374-1.811,114.56,28.272s90.438-20.764,122.923,9.27c22.169,20.5,12.015,73.195-18.383,96.019-41.318,31.024-195.245,31.956-220.785,21.31-43.643-18.192-.279-51.881-20.651-84.175C273.547,305.549,301.205,279.855,319.916,272.951Z" transform="translate(-288.219 -259.431)" fill="#e7f3fe"/><path d="M646.649,2103.639c-21.191-1.041-93.279.722-115.2,1.411s-47.373-.908-60.592-3.254-89.632.2-86.164,6.506,34.045,2.821,68.721,5.356,112.662-.316,130.253,0,33.722-.634,56.392-1.9S658.932,2104.243,646.649,2103.639Z" transform="translate(-376.624 -1944.385)" fill="#cce2ff"/><g transform="translate(183.401)"><path d="M2564.275,203.576a20.665,20.665,0,0,0,.129-2.293c0-.409-.014-.815-.037-1.218l-3.788-1.226a16.642,16.642,0,0,0-1.341-4.539l2.512-3.091a20.532,20.532,0,0,0-1.99-2.892l-3.789,1.236a16.832,16.832,0,0,0-3.751-2.883l.216-3.981a20.285,20.285,0,0,0-3.308-1.172l-2.34,3.229a16.845,16.845,0,0,0-4.729-.124l-2.166-3.348a20.25,20.25,0,0,0-3.365.994l0,3.987a16.816,16.816,0,0,0-3.9,2.681l-3.717-1.434a20.514,20.514,0,0,0-2.141,2.783l2.346,3.22a16.653,16.653,0,0,0-1.582,4.461l-3.847,1.024a20.724,20.724,0,0,0-.128,2.293q0,.614.037,1.218l3.788,1.226a16.659,16.659,0,0,0,1.341,4.539l-2.512,3.091a20.466,20.466,0,0,0,1.99,2.892l3.789-1.236a16.831,16.831,0,0,0,3.75,2.883l-.215,3.981a20.225,20.225,0,0,0,3.308,1.172l2.339-3.229a16.841,16.841,0,0,0,4.73.124l2.166,3.348a20.278,20.278,0,0,0,3.365-.994l-.005-3.986a16.788,16.788,0,0,0,3.9-2.681l3.717,1.434a20.479,20.479,0,0,0,2.141-2.783l-2.345-3.22a16.661,16.661,0,0,0,1.581-4.461Zm-20.291,5.716a8.009,8.009,0,1,1,8.009-8.009A8.009,8.009,0,0,1,2543.985,209.292Z" transform="translate(-2523.565 -181.274)" fill="#9ec8ff" opacity="0.5"/><g transform="translate(30.93 15.092)"><path d="M2898.784,378.317a.412.412,0,0,1-.317-.676,13.435,13.435,0,0,0,2.367-12.941.412.412,0,1,1,.78-.269,14.259,14.259,0,0,1-2.512,13.738A.412.412,0,0,1,2898.784,378.317Z" transform="translate(-2898.372 -364.152)" fill="#fff"/></g><g transform="translate(25.011 6.596)"><path d="M2831.813,264.955a.411.411,0,0,1-.283-.112,13.337,13.337,0,0,0-4.618-2.845.413.413,0,0,1,.281-.776,14.16,14.16,0,0,1,4.9,3.02.413.413,0,0,1-.283.713Z" transform="translate(-2826.64 -261.197)" fill="#fff"/></g><g transform="translate(16.901 5.77)"><path d="M2728.773,252.444a.413.413,0,0,1-.1-.813,14.3,14.3,0,0,1,3.5-.432.413.413,0,0,1,0,.825,13.463,13.463,0,0,0-3.293.407A.415.415,0,0,1,2728.773,252.444Z" transform="translate(-2728.361 -251.199)" fill="#fff"/></g></g><rect width="127.619" height="76.654" transform="translate(64.333 0.058)" fill="#9ec8ff" opacity="0.5"/><rect width="120.065" height="70.371" transform="translate(70.524 1.929)" fill="#fff"/><g transform="translate(142.136 32.697)"><path d="M2330.6,603.843c5.722-5.447,15.5-5.323,15.295,2.971s.479,9.073,2.833,13.424c8.17,15.1-9.738,14.208-17.206,14.7s-6.849-13.575-5.529-21.374S2328.93,605.437,2330.6,603.843Z" transform="translate(-2300.111 -600.11)" fill="#1a0f91"/><path d="M2340.969,1221.577c-1.834,15.4-5.167,26.793-5.539,34.1s-1.857,36.058-1.857,36.058,4.084-.286,4.456-.9,7.674-16.834,7.3-26.86,7.294-25.271,7.294-25.271l-1.848-14.957Z" transform="translate(-2307.81 -1170.291)" fill="#4476bd"/><path d="M2385.91,1302.845l-2.869,1.2c-.78,4.885-1.645,9.277-2.4,13.172,4.565,2.952,6.923,12.785,7.934,18.8.515-6.727,3.689-14.855,5.658-19.35Z" transform="translate(-2350.989 -1244.853)" fill="#3e6bab"/><path d="M2468.958,1202.759s6.183,7.886,5.989,16.834c-.295,13.621-1.781,17.509.8,31.791,1.009,5.578-2.228,23.824-2.228,23.824a10.35,10.35,0,0,1-4.251-.523c.124-1.341-1.787-23.15-5.509-33.175-1.8-4.855-4.336-18.452-5.7-26.25s-1.609-9.407-1.114-9.407S2468.958,1202.759,2468.958,1202.759Z" transform="translate(-2420.79 -1153.026)" fill="#4476bd"/><path d="M2128.881,851.713s.275-4.081-.165-5.341-4.237-2.361-4.237-2.361-.165,5.832.22,6.547a21.829,21.829,0,0,0,2.641,2.751Z" transform="translate(-2115.938 -823.884)" fill="#f09959"/><path d="M2169.746,901.313c-8.692,9.355-11.529,13.292-12.189,13.292-2.063-3.641-8.916-11.344-8.916-11.344l-2.922,1.879s6.752,17.641,11.043,17.824,13.013-6.083,13.124-6.8S2169.746,901.313,2169.746,901.313Z" transform="translate(-2135.457 -876.457)" fill="#ff837b"/><path d="M2327.015,922.048c4.252-1.731,9.124-5.352,9.206-5.888.111-.72-.141-14.847-.141-14.847-1.895,2.04-3.549,3.849-4.985,5.43C2329.539,912.542,2329.64,918.856,2327.015,922.048Z" transform="translate(-2301.792 -876.457)" fill="#d54a41"/><path d="M2393.493,826.678s8.317,4.169,10.133,11.549-3.557,16.5-4.217,21.363-15.844,5.722-15.844.513c0-4.993-3.8-15.592-3.589-18.292.5-6.335,9.764-14.094,9.764-14.094Z" transform="translate(-2350.374 -807.981)" fill="#fe8076"/><path d="M2439.349,710.826l3.571,11.011a95.825,95.825,0,0,0-10.338,10.02c.253-4.71,4.2-9.844,4.2-9.844l-2.7-10.4Z" transform="translate(-2398.647 -701.689)" fill="#f09959"/><path d="M2457.671,715.962l-1.666-5.136-5.269.789,2.7,10.4s-.264.42-.652,1.081A12.7,12.7,0,0,0,2457.671,715.962Z" transform="translate(-2415.303 -701.689)" fill="#e38540"/><path d="M2379.17,654.219c-.963,3.5-4.692,5.433-7.342,4.7s-3.217-3.838-2.254-7.342,3.892-5.754,6.542-5.026S2380.133,650.715,2379.17,654.219Z" transform="translate(-2340.436 -642.597)" fill="#f09959"/><path d="M2380.651,1088.7c1.157,7.327-3.137,23-3.137,23s2.56.582,10.235-.161,11.058-8.4,12.213-8.616,1.749,7.128,2.319,7.708.656-9.272-.833-13.145c-2.641-6.865-2.123-9.778-1.137-13.937C2402.066,1076.158,2380.651,1088.7,2380.651,1088.7Z" transform="translate(-2348.123 -1041.517)" fill="#fe8076"/><path d="M2243.117,2027.978c.691,2.808-.673,5.036-2.5,6.66-1.485,1.32-6.052,1.882-5.832,2.542s5.612.87,7.427.594,2.311-1.155,4.57-1.154c1.481,0,1.756-1.2,1.1-2.693s-.892-2.312-.295-3.647S2243.117,2027.978,2243.117,2027.978Z" transform="translate(-2217.167 -1910.145)" fill="#4476bd"/><path d="M2607.212,2005.261c-.11,2.916-.448,5.088.267,6.44,2.762,2.31,5.058,4.935,4.181,5.116-4.181.864-5.777-1.643-8.143-2.355-2.9-.874.275-4.522-.862-9.2-.633-2.6,4.383-1.978,4.383-1.978Z" transform="translate(-2554.319 -1887.428)" fill="#4476bd"/><path d="M2457.747,915.889a13.729,13.729,0,0,0-.624-2.39c-2.641-6.865-2.124-9.778-1.137-13.937a3.244,3.244,0,0,0,.1-.868c.223-.742.43-1.493.613-2.25l-.9-8.091-6.463-7.675c-4.844,7.1-1.574,15.927-2.3,20.8s-8.842,11.077-8.842,11.077l.264,1.728a4.386,4.386,0,0,0,4.934,3.686c3.345-.464,7.732-1.4,9.685-3.209C2454.969,913,2456.642,914.359,2457.747,915.889Z" transform="translate(-2403.799 -857.525)" fill="#d54a41"/><path d="M2393.149,1263.53s-3.583,1-4.011,1.227-.665,1.408-.665,1.408-2.05,1.781-1.265,2.411,2.189,2.227,4.043,1.484c1.139-.456,2.021-4.639,2.767-4.672S2393.149,1263.53,2393.149,1263.53Z" transform="translate(-2356.853 -1208.782)" fill="#f09959"/><path d="M2461.745,869.321c3.835.109,7.311,7.014,8.522,13.006s2.487,14.509,2.487,14.509-6.354,5.015-12.633,6.481c-5.477,1.279-8.273,1.779-8.273,1.779l-1.111-3.127,13.1-7.7s-4.819-9.078-5.3-15.927S2458.831,869.238,2461.745,869.321Z" transform="translate(-2415.303 -847.103)" fill="#fe8076"/><rect width="9.748" height="6.191" transform="translate(0 20.672) rotate(-11.346)" fill="#9ec8ff"/><path d="M2126.938,865.418c.132-2.511-1.112-5.935-1.827-5.93s.22,2.244-.165,3.729C2124.737,864.022,2126.938,865.418,2126.938,865.418Z" transform="translate(-2116.293 -838.083)" fill="#f09959"/><path d="M2382.965,637.245c.212,6.877,8.245,6.35,10.445,5.926s-2.679,14.508,1.513,15.37c3.079.633,2.385-4.182,5.8-3.86,1.513.142,3.033,2.481,3.033,2.481a4.67,4.67,0,0,0-1.383-2.481c-1.155-1.04-4.185-7.422-4.981-11.989s-6.188-7.52-7.783-7.611-5.5,1.724-5.5,1.724Z" transform="translate(-2353.125 -632.191)" fill="#1a0f91"/><g transform="translate(39.345 10.778)"><path d="M2500.521,747.841a1.58,1.58,0,0,1-.332-.035c-1.342-.286-1.992-1.7-2.047-4.437a64,64,0,0,1,.752-8.56c.167-1.29.338-2.624.48-3.916a.2.2,0,1,1,.4.044c-.142,1.3-.314,2.632-.481,3.924-.8,6.178-1.547,12.014.98,12.552a1.117,1.117,0,0,0,.235.025c1.452,0,2.759-2.829,3.521-5.585a.2.2,0,0,1,.388.107C2503.913,743.779,2502.56,747.841,2500.521,747.841Z" transform="translate(-2498.138 -730.714)" fill="#303c60"/></g><g transform="translate(38.782 10.778)"><path d="M2493.722,749.44a1.585,1.585,0,0,1-1.188-.528c-2.738-2.894-.031-17.417.086-18.034a.2.2,0,1,1,.4.075c-.028.149-2.787,14.937-.189,17.683a1.2,1.2,0,0,0,1.093.389c1.422-.188,2.243-2.117,2.967-3.819.7-1.651,1.363-3.211,2.541-3.169a.2.2,0,1,1-.014.4h-.029c-.883,0-1.487,1.422-2.127,2.926-.766,1.8-1.635,3.842-3.284,4.06A1.894,1.894,0,0,1,2493.722,749.44Z" transform="translate(-2491.313 -730.714)" fill="#303c60"/></g><path d="M2486.935,724.061A1.274,1.274,0,1,1,2487,722,1.5,1.5,0,0,1,2486.935,724.061Z" transform="translate(-2446.351 -711.761)" fill="#f09959"/></g><g transform="translate(90.944 64.761)"><path d="M1595.9,1008.018a7.191,7.191,0,0,1-3.519,10.032c-3.882,1.606-8.127.694-10.088-3.227a7.614,7.614,0,1,1,13.607-6.8Z" transform="translate(-1566.228 -1001.442)" fill="#1a0f91"/><g transform="translate(14.774 6.345)"><path d="M1580.7,1065.676a3.669,3.669,0,0,1-2.37-1.115,6.057,6.057,0,0,1-1.8-3.409,11.854,11.854,0,0,1,.66-6.075.2.2,0,0,1,.38.131,11.462,11.462,0,0,0-.645,5.868,5.657,5.657,0,0,0,1.671,3.184c1.375,1.22,2.3,1,2.307,1a.2.2,0,0,1,.108.387A1.22,1.22,0,0,1,1580.7,1065.676Z" transform="translate(-1576.378 -1054.942)" fill="#303c60"/></g><g transform="translate(0 20.461)"><path d="M1688.631,1242.649c2.232.5,5.049,6.7,6.429,10.675,1.392,4.008,3.751,8.979,5.3,10.523s11.694,5.125,11.694,5.125-25.078.049-24.565,0S1688.631,1242.649,1688.631,1242.649Z" transform="translate(-1663.535 -1241.275)" fill="#a8ceff"/><path d="M1713.1,1266.981c-1.373-.2-6.326.441-4.217-.442s1.814-2.01,1.814-2.01-2.991,2.5-3.53.314c-.465-1.886-.643-8.543-2.408-15.215-1.458-3.308-3.367-6.618-4.972-6.978,0,0-.057,2.349-.15,5.644.616,7.29,1.661,18,1.927,20.7,3.324.005,8.887,0,13.541-.006l3.1-.148A33.213,33.213,0,0,0,1713.1,1266.981Z" transform="translate(-1674.695 -1241.275)" fill="#93bbf0"/><path d="M1501.635,1226s-7.1,3.967-8.754,4.81,4.636,25.605,6.035,26.666,13.717.183,15.12-1.154-1.076-5.44.137-13.655-3.7-15.308-4.333-15.292a42.464,42.464,0,0,1-4.753-1.374Z" transform="translate(-1484.745 -1225.996)" fill="#a8ceff"/><path d="M1499.163,1314.974c1.4,1.061,10.214,1.085,13.966-.083.423-.132,2.346-.9,2.391-1.618-.453-.085-2.25.131-2.98-.037-2.538-.583-3.935-3.727-3.935-3.727s-1.4-.5-4.524-1.827-1.839-5.332-1.912-7.1-3.089-7.54-8.753-11.916l-.52.233C1492.492,1292.927,1497.868,1313.993,1499.163,1314.974Z" transform="translate(-1484.991 -1283.498)" fill="#93bbf0"/><g transform="translate(27.643 11.978)"><path d="M1883.505,1372.006h-17.095l-7.785,16.568h18.829l7.047-15A1.1,1.1,0,0,0,1883.505,1372.006Z" transform="translate(-1848.202 -1371.935)" fill="#75a1de"/><path d="M1743.763,1388.017h-10.286a1.155,1.155,0,0,1,0-2.311h9.549l6.456-13.9a1.155,1.155,0,0,1,2.1.974l-6.767,14.564A1.156,1.156,0,0,1,1743.763,1388.017Z" transform="translate(-1732.321 -1371.143)" fill="#3e6bab"/></g><path d="M1640.979,1532.736c4.462.834,5.559,1.858,7.992,2.25,2.758.444,2.429,1.054.381,1.054s-7.194.08-8.961-.313S1640.979,1532.736,1640.979,1532.736Z" transform="translate(-1619.732 -1507.423)" fill="#febbba"/><path d="M1404.932,1285.134c-3.42,10.935-8.268,23.342-7.5,23.342s20.41.794,21.182.133.552-3.2.442-3.53-11.164-2.293-11.164-2.293a25.457,25.457,0,0,0,2.007-8.381C1410.454,1288.862,1405.581,1283.061,1404.932,1285.134Z" transform="translate(-1397.354 -1279.859)" fill="#a8ceff"/></g><path d="M1602.9,1110.857l-2.755,10.067s4.655,7.266,5.935,6.621-.716-5.906-.716-6.621,2-8.09,2-8.09Z" transform="translate(-1583.41 -1099.898)" fill="#ff928e"/><path d="M1625.953,1121.438a2.691,2.691,0,0,1-.1-.513c0-.715,2-8.09,2-8.09l-4.46-1.977-.912,3.331A17.367,17.367,0,0,0,1625.953,1121.438Z" transform="translate(-1603.903 -1099.898)" fill="#ff928e"/><path d="M1648.224,1058.937c.525,2.919.179,6.8-2.413,7.782s-5.715-.9-6.974-4.212-.179-6.8,2.413-7.782A5.465,5.465,0,0,1,1648.224,1058.937Z" transform="translate(-1618.426 -1048.144)" fill="#febbba"/><path d="M1620.151,1112.9a1.764,1.764,0,0,1-.705,2.333c-.753.268-1.657-.342-2.021-1.363a1.764,1.764,0,0,1,.7-2.333C1618.882,1111.265,1619.787,1111.875,1620.151,1112.9Z" transform="translate(-1599.125 -1100.46)" fill="#ff928e"/><path d="M1626.9,1038.731c-.883,6.85-9.205,5.968-9.205,5.968s-1.716-2.257-2.489-1.073,1.071-6.945,5.847-7.2C1622.624,1036.341,1626.9,1038.731,1626.9,1038.731Z" transform="translate(-1597.073 -1031.606)" fill="#1a0f91"/><ellipse cx="4.508" cy="4.229" rx="4.508" ry="4.229" transform="translate(12.353)" fill="#1a0f91"/></g><g transform="translate(98.78 111.317)"><g transform="translate(0 1.918)"><path d="M1492.874,1833.073h1.031l6.656-30.839h-2.268Z" transform="translate(-1492.874 -1783.567)" fill="#2e5b9a"/><path d="M1783.636,1820.952H1782.6l-7.747-31.93h2.268Z" transform="translate(-1751.588 -1771.446)" fill="#2e5b9a"/><g transform="translate(0.582)"><path d="M1511.1,1595.856c-4.13,0-6.745-.742-8.415-2.368-2.069-2.016-2.5-5.139-2.5-9.207-.005-3.2-.081-5.288-.255-6.973a1.155,1.155,0,1,1,2.3-.237c.182,1.767.262,3.922.267,7.206.006,4.123.53,6.313,1.806,7.556,1.309,1.275,3.676,1.8,7.673,1.7a45.43,45.43,0,0,0,8.651-1.069c2.808-.571,4.837-.983,7.242.167a1.155,1.155,0,0,1-1,2.085c-1.708-.816-3.156-.521-5.786.013a47.41,47.41,0,0,1-9.054,1.115Q1511.554,1595.856,1511.1,1595.856Z" transform="translate(-1499.922 -1576.034)" fill="#2e5b9a"/></g></g><path d="M1521.7,1574.38l6.321.263-1.682,17.451s-4.711-3.007-4.638-6.244S1521.7,1574.38,1521.7,1574.38Z" transform="translate(-1519.324 -1572.599)" fill="#2e5b9a"/><path d="M1890.01,1590.367c5.345-.811,7.161-.555,10.432,5.532s7.625,17.048,10.129,18.463c3.771,2.132,5.02,7.359,6.568,7.124s2.545.449.86,1.849-4.4,2.592-5.335,2.344-1.652-4.268-4.082-5.573-1.7-2.377-1.54-3.532-7.092-6.469-12.559-13.08c-3.34-4.039-5.06-6.7-5.315-9.121A6.34,6.34,0,0,1,1890.01,1590.367Z" transform="translate(-1856.428 -1586.96)" fill="#febbba"/><path d="M1903.26,1612.442a121.952,121.952,0,0,1-3.656-13.111c-1.665-6.776-3.409-8.385-4.514-9.108a13.389,13.389,0,0,0-5.079.146,6.338,6.338,0,0,0-.843,4.006c.255,2.416,1.975,5.082,5.315,9.121a95.9,95.9,0,0,0,8.777,8.945Z" transform="translate(-1856.428 -1586.962)" fill="#ff928e"/><path d="M1861.943,1595.726s-1.422,10.729-2.746,11.82c-.947.78-1.618.832-2.28-2.368s1.03-15.144,1.03-15.144Z" transform="translate(-1826.734 -1586.961)" fill="#2e5b9a"/><path d="M1759.482,1622.7l-13.161,2.211,7.43-10.654,5.655-1.151,3.391.78Z" transform="translate(-1725.406 -1608.125)" fill="#ff928e"/><path d="M2103.2,1911.651c-.427,1.719-.375,2.99.366,3.627a50.8,50.8,0,0,1,3.542,5.37l.873-.132-2.021-4.331Z" transform="translate(-2052.585 -1882.037)" fill="#2e5b9a"/><path d="M2109.289,1919.864c.93.248,3.651-.944,5.335-2.344s.688-2.084-.86-1.849a.67.67,0,0,1-.26-.013c-.773,1.727-3.316,3.023-4.137,1.2a20.892,20.892,0,0,0-5.7-6.177.317.317,0,0,1,0,.08c-.16,1.154-.89,2.226,1.54,3.532S2108.358,1919.615,2109.289,1919.864Z" transform="translate(-2053.054 -1881.145)" fill="#2e5b9a"/><path d="M1549.3,1594.192c-4.67,8.38-1.48,13.705,4.2,14.248s14.634-.493,19.857-4.833,9.509-8.928,8.91-9.613S1549.3,1594.192,1549.3,1594.192Z" transform="translate(-1542.579 -1590.355)" fill="#ff928e"/><path d="M1883.639,1618.231c.956-2.869,2.058-5.069,4.192-5.109,2.244-.042,3.624,1.125,3.72,4.8.114,4.371.268,18.848.066,25.284-.153,4.872,1.267,6.432,1.147,11.512-.09,3.825,3.989,1.893,2.413,3.877-1.084,1.365-4.308.918-6.29.666-1.765-.224.914-5.514-1.529-6.929a2.834,2.834,0,0,1-.813-4.675c1.324-1.492.147-5.9-.735-8.994a68.232,68.232,0,0,1-3.151-13.735A17.506,17.506,0,0,1,1883.639,1618.231Z" transform="translate(-1850.44 -1608.143)" fill="#febbba"/><path d="M1927.664,2039.838a9.247,9.247,0,0,1-2.234.458c-1.471.049-1.912-1.569-2.01-3.767a10.539,10.539,0,0,0-2.909-6.168c-.026.035-.053.069-.082.1a2.835,2.835,0,0,0,.813,4.675c2.443,1.414-.235,6.7,1.529,6.928,1.981.252,5.206.7,6.289-.667C1930.084,2040.11,1928.813,2040.007,1927.664,2039.838Z" transform="translate(-1884.323 -1990.95)" fill="#2e5b9a"/><path d="M1912.59,2024.963s-2.145,2.24-1.949,3.172a35.626,35.626,0,0,1,.968,5.1c.11,1.814.208,3.9.208,3.9s.772,0,.834-.219.49-7.375.49-7.375Z" transform="translate(-1876.154 -1985.998)" fill="#2e5b9a"/><path d="M1535.485,1590.034s-2.77,11.754.73,15.012,18.03.327,21.452.132c2.317-.132,4.56,2.7,4.56,2.7s-1.618-6.558-.515-11.854,2.884-5.652,2.884-5.652l-2.369-.334Z" transform="translate(-1531.014 -1586.961)" fill="#75a1de"/><path d="M1532.774,1552.8c1.184,2.513-1.275,6.852-.413,8.1s5.8.175,9.029-2.428,9.353-3.175,9.353-3.175Z" transform="translate(-1528.931 -1552.795)" fill="#a8ceff"/><path d="M1561.031,1775.27c9.783.368,20.08.194,20.08-1.264s-.441-2.487-8.017-1.9-12.725,1.4-15,.883S1561.031,1775.27,1561.031,1775.27Z" transform="translate(-1552.179 -1753.855)" fill="#2e5b9a"/></g><rect width="139.963" height="2.663" rx="1.332" transform="translate(72.966 113.598)" fill="#2e5b9a"/><g transform="translate(169.018 67.461)"><path d="M2980.11,1086a6.336,6.336,0,0,1-3.917,7.508c-2.55.723-4.369-1.547-5.317-4.888s.351-6.636,2.9-7.359S2979.163,1082.659,2980.11,1086Z" transform="translate(-2919.626 -1076.188)" fill="#f09959"/><path d="M2880.15,1924.823s6.535,10.15,7.417,10.591,3.09.552,2.262,2.206-1.158,8.164-1.93,8.5-7.392,1.1-6.4,0,1.6-.552,2.1-2.538,1.205-5.737.267-6.509-6.674-7.723-6.674-7.723Z" transform="translate(-2833.963 -1850.266)" fill="#f09959"/><path d="M2366.59,1977.643s-7.944,13.093-9.415,14.27-6.325,2.942-2.354,3.236,5.884-1.324,8.385-2.059,5.59-1.177,4.413-3.089-.688-6.087,1.849-8.735S2366.59,1977.643,2366.59,1977.643Z" transform="translate(-2353.293 -1898.727)" fill="#f09959"/><path d="M2517.456,1609.641s-19.665-.514-27.461,5.884c-4.561,6.914-15.592,27.314-16.45,29.562a11.05,11.05,0,0,0,5.369,1.5c4.34-5.175,10.076-9.648,12.357-13.707,2.812-5,3.678-7.5,8.238-7.944s14.858-1.913,17.947-1.913S2517.456,1609.641,2517.456,1609.641Z" transform="translate(-2463.621 -1561.085)" fill="#6791c9"/><path d="M3119.81,1847.334h-1.031l-7.391-30.84h2.268Z" transform="translate(-3048.826 -1750.877)" fill="#2e5b9a"/><path d="M2839.275,1835.213h1.031l8.482-31.93h-2.268Z" transform="translate(-2799.17 -1738.757)" fill="#2e5b9a"/><path d="M2711.545,1593.429l-11.433,1.973s-15.193.14-22.138,1.433c-6.318,1.177-7.249,8.355,0,18.241,4.118,5.615,7.6,10.095,14.721,15.146,1.811-1.33,2.5-1.833,3-5.032-.515-.707-1.849-5.129-2.263-5.994-3.938-8.232-9.2-11.226-9.268-12.036.883-1.434,23.379,7.476,27.852,2.234C2716.29,1604.39,2711.545,1593.429,2711.545,1593.429Z" transform="translate(-2646.507 -1546.22)" fill="#75a1de"/><path d="M2984.973,1278.338a11.964,11.964,0,0,0-8.946,2.226,17.991,17.991,0,0,0-5.168,13.717c.221,8.826-1.365,9.393.289,11.82,6.9,2.85,18.707,15.1,15.927,1.968-2.013-9.506,4.415-16.592-.77-27.137C2985.882,1280.074,2985.354,1279.242,2984.973,1278.338Z" transform="translate(-2919.46 -1257.013)" fill="#f37168"/><path d="M2970.861,1322.118c-.134,4.6-.784,5.957-.287,7.4,2.814.287,7.961,1.413,9.247,3.214,1.471,2.059,2.942,2.354,2.256.833s-2.5-3.678.294-11.082,4.119-12.406,1.372-17.555Z" transform="translate(-2919.464 -1281.527)" fill="#d54a41"/><path d="M3047.7,1176.158a35.916,35.916,0,0,1-2.31-9.321l-4.854,1.434s2.758,6.178.11,8.385a25.258,25.258,0,0,0-1.892,1.728A11.963,11.963,0,0,1,3047.7,1176.158Z" transform="translate(-2982.188 -1154.832)" fill="#f09959"/><path d="M3065.433,1170.893c-.288-.256-.648-.575-1.026-.909l-3.959,1.17c0,.007,0,.014-.008.021a16.156,16.156,0,0,1,1.237,4.836,13.959,13.959,0,0,0,3.949-3.922C3065.545,1171.637,3065.482,1171.233,3065.433,1170.893Z" transform="translate(-3002.083 -1157.72)" fill="#e38540"/><path d="M2777.931,1294.969c-5,1.749-4.446,7.016-9.047,14.783-2.381,4.02-4.593,3.96-4.593,3.96a106.585,106.585,0,0,1-12.34-.781c-4.23-.518-4.5.742-1.557,1.793,5.933,2.121,12.091,4.4,17.056,3.853s13.456-13.219,13.894-16.516C2781.949,1297.5,2780.449,1294.088,2777.931,1294.969Z" transform="translate(-2715.831 -1272.262)" fill="#f09959"/><g transform="translate(42.079 33.718)"><path d="M2880.641,1463q-.465,0-.953-.012a47.449,47.449,0,0,1-9.055-1.115c-2.629-.534-4.078-.829-5.785-.013a1.155,1.155,0,1,1-1-2.085c2.405-1.15,4.435-.737,7.242-.167a45.364,45.364,0,0,0,8.651,1.069c4.346.107,7.005-.544,8.364-2.05,1.213-1.345,1.57-3.588,1.124-7.057-.151-1.175-.3-2.152-.436-3.014a20.728,20.728,0,0,1-.316-6.48,76.319,76.319,0,0,1,2.811-11.3,1.155,1.155,0,1,1,2.215.658c-3.3,11.118-3.133,12.2-2.427,16.773.136.875.289,1.868.444,3.073.539,4.188,0,7.016-1.7,8.9C2888.074,1462.117,2885.22,1463,2880.641,1463Z" transform="translate(-2863.194 -1429.946)" fill="#2e5b9a"/></g><path d="M2367.129,2111.357c-5.271,2.578-8.108,4.055-9.8,3.914-.4-.033-.729-.074-1.007-.117-1.88,1.111-4.88,2.424-1.5,2.674,3.972.294,5.885-1.323,8.385-2.059s5.59-1.177,4.413-3.089A4.023,4.023,0,0,1,2367.129,2111.357Z" transform="translate(-2353.292 -2021.407)" fill="#d54a41"/><path d="M2934.852,2055.773c-.129,4.174-.7,8.309-3.255,9.09a4.291,4.291,0,0,1-1.839.164c-.4.5-.892.5-1.549,1.232-.993,1.1,5.626.331,6.4,0s1.1-6.84,1.931-8.5C2937.219,2056.405,2935.852,2056.088,2934.852,2055.773Z" transform="translate(-2880.673 -1970.41)" fill="#d54a41"/><g transform="translate(9.21 28.865)"><path d="M2489.557,1388.016h-16.745a1.155,1.155,0,0,1-1.048-.668L2465,1372.784a1.155,1.155,0,0,1,2.1-.974l6.456,13.895h16.008a1.155,1.155,0,1,1,0,2.311Z" transform="translate(-2464.89 -1371.142)" fill="#75a1de"/></g><path d="M2640.719,1495.922c-3.383-.049-6.739-2.066-8.406-1.771s-7.11,4.07-6.424,4.217,5-2.09,5.149-2.124a7.254,7.254,0,0,0,3.383,2.131c2.3.581.017-1.727,7.16.43C2646.227,1500.208,2640.719,1495.922,2640.719,1495.922Z" transform="translate(-2603.339 -1455.108)" fill="#f09959"/><path d="M3013.792,1231.247l.5,4.005s-4.378.26-6.557,1.487-5.394,4.768-5.394,4.768l2.627-4.523.378-2.893Z" transform="translate(-2948.777 -1213.927)" fill="#f2e5de"/><path d="M2835,1289.776c-3.252-.609-4.757,2.3-6.865,7.061a68.382,68.382,0,0,1-6.424,11.278c-.716.745-12.062,0-12.062,0s-.344,3.286,0,3.678,2.3.344,2.3.344.785.626,1.52,1.122,6.963,1.427,9.856,1.28,5.541-.392,5.933-.834,8.287-12.6,8.777-16.966S2836.662,1290.087,2835,1289.776Z" transform="translate(-2771.85 -1267.552)" fill="#f2e5de"/><path d="M2944.073,1023.583c-6.151.294-5.186,9.547-5.186,9.547a11.957,11.957,0,0,0,4.944-.059,18.446,18.446,0,0,1-.147-3.53,23.187,23.187,0,0,0,.883,3.31c.707.324,1.508.037,2.868-.292a6.054,6.054,0,0,0,4.025,4.608c1.494.47,3.075,1.03,4.841.147s.794-9.905-.143-11.719c-1.407-2.724-3.746-5.161-7.791-3.874A30.045,30.045,0,0,0,2944.073,1023.583Z" transform="translate(-2890.511 -1021.366)" fill="#1a0f91"/><path d="M3131.946,1174.034l2.515,3.673s-2.787,6.963,5.318,10.118c6.348,2.471,5.6,6.824,2.732,11.2s1.716,8.2,1.716,8.2.7-4.849,6.866-5.765c8.41-1.248,10.791-12.539,4.51-18.184-5.2-4.672-6.78-.8-10.3-5s-10.16-1.361-10.16-1.361l-2.434-3.55Z" transform="translate(-3067.689 -1160.828)" fill="#1a0f91"/><g transform="translate(67.256 14.518)"><path d="M3191.831,1216.571a.2.2,0,0,1-.176-.3c2.119-3.874.39-8.567-.48-9.838-.092-.134-.179-.27-.271-.415-.855-1.334-1.919-3-7.591-4.016a9,9,0,0,1-3.627-1.91c-2.42-1.777-5.162-3.79-11.121-1.047a.2.2,0,0,1-.168-.365c6.174-2.841,9.018-.754,11.527,1.088a8.709,8.709,0,0,0,3.46,1.839c5.844,1.052,6.961,2.8,7.859,4.2.091.142.176.275.264.4a10.889,10.889,0,0,1,1.437,4.171,9.793,9.793,0,0,1-.935,6.087A.2.2,0,0,1,3191.831,1216.571Z" transform="translate(-3168.279 -1197.288)" fill="#303c60"/></g><g transform="translate(56.366 8.244)"><path d="M3042.866,1129.964a8.817,8.817,0,0,1-1.3-.105c-2.144-.321-5.02-1.54-5.246-8.391a.2.2,0,0,1,.194-.207.2.2,0,0,1,.208.194c.093,2.836.657,4.934,1.674,6.238a4.713,4.713,0,0,0,3.23,1.769c2,.3,3.329-.072,3.945-1.1a.2.2,0,1,1,.345.206A3.26,3.26,0,0,1,3042.866,1129.964Z" transform="translate(-3036.318 -1121.261)" fill="#303c60"/></g></g><g transform="translate(26.126 68.11)"><path d="M620.057,1285.624c-7.139,4.082-17.068,21.05-14.972,23.819s13.349-4.512,13.349-4.512Z" transform="translate(-604.801 -1264.465)" fill="#d54a41"/><path d="M803.746,1030.705c-2.726-.074-1.714-2.1-4.849-1.291-1.648.425-.431,1.1-2.572.883s-3.194-.441-3.464.956-.4,1.839-1.43,2.06-1.495,2.059,0,3.31.768,1.765.437,2.795.8,1.1,1.41,2.06-.564,1.137.318,1.966a3.127,3.127,0,0,0,2.121.756l3.716-7.124Z" transform="translate(-775.153 -1029.224)" fill="#1a0f91"/><path d="M1573.631,2049.953a21.019,21.019,0,0,0,7.061-1.1c3.089-1.214,5.185-3.089,4.634-.883s-3.089,5.992-5.3,6.361-2.979,2.8-4.192,2.8-2.979-2.8-6.068-4.194C1566.954,2051.657,1573.631,2049.953,1573.631,2049.953Z" transform="translate(-1489.501 -1962.959)" fill="#2e5b9a"/><path d="M1189.768,2049.581a15.275,15.275,0,0,0,4.577,3.906c3,1.654,6.466,2.451,4.318,3.2a14.086,14.086,0,0,1-8.351.441c-2.148-.624-4.667-.754-5.333-1.769s.783-3.564.181-7.374C1184.678,2044.932,1189.768,2049.581,1189.768,2049.581Z" transform="translate(-1136.938 -1962.959)" fill="#2e5b9a"/><path d="M955.392,1630.224s23.007,8.615,24.861,11.023,26.038,24.346,26.038,25.964-4.119,4.56-4.119,4.56-20.742-12.725-25.891-19.2-17.715-9.593-24.4-10.193S955.392,1630.224,955.392,1630.224Z" transform="translate(-921.16 -1580.627)" fill="#3e6bab"/><path d="M820.881,1627.317s15.74-.589,19.124,0,10.8.581,5.951,14.281c-3.8,10.738-5.061,24.333-5.061,24.333l-7.565,1.859s.3-24.446,3.91-30.955a121.373,121.373,0,0,0-14.141,3.191c-12.406,3.548-19.208,1.771-19.208,1.771l-1.847-6.473Z" transform="translate(-785.766 -1577.72)" fill="#4476bd"/><path d="M828.272,1137.762l-3.846,11.363,4.859,3.2,2.753-9.819Z" transform="translate(-806.302 -1128.805)" fill="#a86b48"/><path d="M856.837,1150.775l2.319-8.27-3.766-4.744-1.407,4.156A23.672,23.672,0,0,0,856.837,1150.775Z" transform="translate(-833.42 -1128.805)" fill="#7a4e34"/><path d="M880.842,1096.553c.125,3.456-1.573,6.448-4.271,6.714s-5.161-2.308-5.5-5.75,1.573-6.447,4.271-6.713S880.645,1091.1,880.842,1096.553Z" transform="translate(-849.061 -1085.673)" fill="#a86b48"/><path d="M729.637,1271.449c-11.806,7.973-4.463,20.857-1.871,30.272,2.208,8.019,2.136,12.865,2.467,12.865s8.45-1.213,13.084-5.406a71,71,0,0,0,7.766-8.253s-5.936-1.057-7.876-8.737c-.985-3.9-.537-6.016-2.782-12.194S729.637,1271.449,729.637,1271.449Z" transform="translate(-713.36 -1251.459)" fill="#fe8076"/><path d="M802.043,1237.053l1.264-3.094s4.009,2.648,5.609,3.9a9.01,9.01,0,0,0,2.586,1.544s.578,4.435.2,4.033A22.723,22.723,0,0,0,802.043,1237.053Z" transform="translate(-785.766 -1217.063)" fill="#fe8076"/><g transform="translate(8.609 37.364)"><path d="M738.642,1847.334h1.031l7.392-30.84H744.8Z" transform="translate(-736.206 -1788.89)" fill="#2e5b9a"/><path d="M1007.055,1835.213h-1.031l-8.482-31.93h2.268Z" transform="translate(-973.741 -1776.769)" fill="#2e5b9a"/><path d="M723.041,1510.754c-4.129,0-6.745-.742-8.415-2.368-2.069-2.016-2.5-5.139-2.5-9.208-.013-8.553-.486-10.322-2.894-15.545a1.155,1.155,0,0,1,2.1-.967c2.545,5.521,3.093,7.55,3.106,16.509.006,4.124.529,6.313,1.806,7.556,1.309,1.275,3.676,1.8,7.673,1.7a45.406,45.406,0,0,0,8.651-1.069c2.808-.571,4.836-.983,7.242.166a1.155,1.155,0,1,1-1,2.085c-1.708-.816-3.156-.522-5.786.013a47.409,47.409,0,0,1-9.054,1.115Q723.492,1510.753,723.041,1510.754Z" transform="translate(-709.122 -1481.994)" fill="#2e5b9a"/></g><g transform="translate(55.638 28.083)"><path d="M1296.905,1386.4H1280.16a1.155,1.155,0,0,1,0-2.311h16.008l6.456-13.895a1.155,1.155,0,0,1,2.1.974l-6.767,14.563A1.155,1.155,0,0,1,1296.905,1386.4Z" transform="translate(-1279.005 -1369.524)" fill="#3e6bab"/></g><path d="M807.34,1288.583s2.942,8.974,6.583,12.688,10.968,4.962,13.262,4.817c-1.829-.736-5.312-2.828-6.713-8.372-.985-3.9-.537-6.016-2.782-12.194-1.667-4.586-6.8-7.073-9.339-8.05,3.166,2.274,7.124,6.018,8.34,8.868C818.042,1289.5,807.34,1288.583,807.34,1288.583Z" transform="translate(-790.626 -1256.986)" fill="#d54a41"/><path d="M1277.926,1484.076s5.075-2.317,5.626-2.1,6.178,3.618,6.178,4.181-4.965-2.1-4.965-2.1a3.859,3.859,0,0,1,.221,2.176c-.331.705-4.148.705-7.59.485S1277.926,1484.076,1277.926,1484.076Z" transform="translate(-1220.603 -1444.604)" fill="#a86b48"/><path d="M800.009,1322.231c-4.678,9.588,11.369,19.308,20.89,20.172s20.831-2.251,20.831-2.251l-1.275-3.113s-19.073-2.489-19.556-2.838S801.722,1318.719,800.009,1322.231Z" transform="translate(-783.132 -1297.566)" fill="#fe8076"/><path d="M847.608,1124.188a1.98,1.98,0,0,1-.71,2.633c-.826.314-1.847-.355-2.28-1.5a1.98,1.98,0,0,1,.71-2.633C846.153,1122.378,847.174,1123.048,847.608,1124.188Z" transform="translate(-824.649 -1114.907)" fill="#a86b48"/><path d="M872.289,1041c1.293-.539,2.748-1.117,2.3,1.079-.2.956,0,.687.343,1.569s-.865,1.576-1.258,2.066.571,1.023-.214,1.612-1.819-.218-2.55,0c-2.182.651-1.912-1.065-3.138-1.422s-1.827-.3-2.06.483.858,3.367-.074,3.121-1.142,1.839-1.392,3.016-.89-.812-.849-2.159c.063-2.065-.449-2.932-1.21-3.51s-1.084-5.831,2.593-6.027a18.2,18.2,0,0,0,5.27-.883C871.62,1039.615,871.7,1041.247,872.289,1041Z" transform="translate(-840.502 -1039.021)" fill="#1a0f91"/></g><g transform="translate(15.087 8.275)"><g transform="translate(98.436 0)"><path d="M1699.428,295.327a13.783,13.783,0,1,0-23.918,9.341,6.252,6.252,0,0,1,1.656,4.239v6.178a7.289,7.289,0,0,0,7.267,7.267h2.423a7.289,7.289,0,0,0,7.267-7.267v-6.178a6.318,6.318,0,0,1,1.681-4.267A13.732,13.732,0,0,0,1699.428,295.327Z" transform="translate(-1671.863 -281.544)" fill="#fe8076"/><path d="M1718.91,327.943a11.858,11.858,0,1,0-20.577,8.036,5.377,5.377,0,0,1,1.425,3.646v5.315a6.271,6.271,0,0,0,6.252,6.252h2.084a6.271,6.271,0,0,0,6.252-6.252v-5.315a5.436,5.436,0,0,1,1.446-3.671A11.813,11.813,0,0,0,1718.91,327.943Z" transform="translate(-1693.269 -313.235)" fill="#fff" opacity="0.5"/><g transform="translate(5.903 17.399)"><path d="M1753.314,504.817h-4.539a.412.412,0,0,1-.411-.375c-.008-.088-.855-8.85-4.773-11.3a.413.413,0,0,1,.438-.7c3.822,2.394,4.908,9.776,5.117,11.553h3.732a13.518,13.518,0,0,1,.372-3.309,18.174,18.174,0,0,1,4.439-8.174.413.413,0,1,1,.608.558c-5.151,5.608-4.579,11.234-4.572,11.29a.413.413,0,0,1-.41.459Z" transform="translate(-1743.398 -492.376)" fill="#94bdf2"/></g><g transform="translate(5.394 13.173)"><path d="M1751.045,446.724c-1.532,0-3.622-1.089-5.822-2.269-2.842,1.514-5.5,2.871-6.982,1.97a2.676,2.676,0,0,1-1.02-2.533,2.618,2.618,0,0,1,1.027-2.416c1.489-.881,4.148.525,6.976,2.043,2.884-1.538,5.6-2.97,7.082-2.067a2.611,2.611,0,0,1,.98,2.449,2.761,2.761,0,0,1-1.084,2.538A2.242,2.242,0,0,1,1751.045,446.724Zm-4.945-2.736c2.266,1.2,4.636,2.357,5.683,1.741.438-.258.666-.876.678-1.838.012-.908-.184-1.491-.584-1.734C1750.866,441.541,1748.409,442.763,1746.1,443.988Zm-6.736-1.962a1.35,1.35,0,0,0-.695.161c-.405.24-.615.816-.623,1.713-.009.951.2,1.564.623,1.819,1.018.617,3.4-.53,5.678-1.734C1742.5,443,1740.567,442.026,1739.364,442.026Z" transform="translate(-1737.221 -441.171)" fill="#94bdf2"/></g><rect width="6.024" height="3.631" rx="1.816" transform="translate(10.91 39.137)" fill="#94bdf2"/><path d="M1731.28,634.135v4.37a7.633,7.633,0,0,0,7.611,7.611h2.538a7.633,7.633,0,0,0,7.611-7.611v-4.37Z" transform="translate(-1726.377 -605.038)" fill="#94bdf2"/><rect width="19.366" height="2.091" rx="1.045" transform="translate(4.212 28.382)" fill="#9ec8ff"/><path d="M1741.991,646.642l-17.254,2.131a.993.993,0,0,1-1.1-.862l-.014-.109a.993.993,0,0,1,.862-1.1l17.254-2.131a.993.993,0,0,1,1.1.861l.013.109A.993.993,0,0,1,1741.991,646.642Z" transform="translate(-1719.341 -614.602)" fill="#9ec8ff"/><path d="M1741.991,683.234l-17.254,2.131a.993.993,0,0,1-1.1-.861l-.014-.109a.993.993,0,0,1,.862-1.1l17.254-2.131a.993.993,0,0,1,1.1.862l.013.109A.993.993,0,0,1,1741.991,683.234Z" transform="translate(-1719.341 -648.174)" fill="#9ec8ff"/><path d="M1761.944,722.4l-14.37,1.775a.912.912,0,0,1-1.013-.791l-.033-.271a.911.911,0,0,1,.791-1.013l14.37-1.775a.912.912,0,0,1,1.014.791l.033.271A.911.911,0,0,1,1761.944,722.4Z" transform="translate(-1740.359 -684.108)" fill="#9ec8ff"/></g><g transform="translate(234.435 31.65)"><path d="M3338.089,690.041h9.262a9.262,9.262,0,1,1-9.262-9.262Z" transform="translate(-3328.826 -679.482)" fill="#9ec8ff"/><g transform="translate(1.551)"><path d="M3469.122,674.326a9.262,9.262,0,0,0-9.262-9.262v9.262Z" transform="translate(-3450.597 -665.064)" fill="#f39892"/><path d="M3347.623,777.3a9.262,9.262,0,0,0,9.262,9.262A9.307,9.307,0,0,1,3347.623,777.3Z" transform="translate(-3347.623 -768.038)" fill="#f39892"/><path d="M3356.885,665.064a9.262,9.262,0,0,0-9.262,9.262A9.307,9.307,0,0,1,3356.885,665.064Z" transform="translate(-3347.623 -665.064)" fill="#f39892"/><path d="M3459.859,786.562a9.262,9.262,0,0,0,9.262-9.262A9.306,9.306,0,0,1,3459.859,786.562Z" transform="translate(-3450.597 -768.038)" fill="#f39892"/></g></g><g transform="translate(63.365 28.24)"><rect width="2.023" height="5.853" transform="translate(0 7.842)" fill="#9ec8ff"/><rect width="2.023" height="3.949" transform="translate(25.929 9.746)" fill="#9ec8ff"/><rect width="2.023" height="13.695" transform="translate(8.573)" fill="#9ec8ff"/><rect width="2.023" height="6.156" transform="translate(12.86 7.539)" fill="#9ec8ff"/><rect width="2.023" height="7.898" transform="translate(17.146 5.797)" fill="#9ec8ff"/><rect width="2.023" height="9.718" transform="translate(4.287 3.977)" fill="#9ec8ff"/><rect width="2.023" height="11.969" transform="translate(21.447 1.726)" fill="#9ec8ff"/></g><g transform="translate(32.094 4.679)"><path d="M8.035,0h19.49A8.035,8.035,0,0,1,35.56,8.035v0a8.035,8.035,0,0,1-8.035,8.035H8.035A8.035,8.035,0,0,1,0,8.036v0A8.035,8.035,0,0,1,8.035,0Z" fill="#9ec8ff"/><rect width="33.615" height="11.094" rx="5.547" transform="translate(0.972 4.222)" fill="#fff"/><g transform="translate(1.466 1.183)"><path d="M.627,0H.766a.627.627,0,0,1,.627.627v0a.627.627,0,0,1-.627.627H.627A.627.627,0,0,1,0,.627v0A.627.627,0,0,1,.627,0Z" fill="#fff"/><path d="M.627,0H.766a.627.627,0,0,1,.627.627v0a.627.627,0,0,1-.627.627H.627A.627.627,0,0,1,0,.627v0A.627.627,0,0,1,.627,0Z" transform="translate(2.533)" fill="#fff"/><path d="M.627,0H.766a.627.627,0,0,1,.627.627v0a.627.627,0,0,1-.627.627H.627A.627.627,0,0,1,0,.627v0A.627.627,0,0,1,.627,0Z" transform="translate(5.066)" fill="#fff"/></g><path d="M1063.149,407.044h-17.781a.532.532,0,1,1,0-1.064h17.781a.532.532,0,1,1,0,1.064Z" transform="translate(-1029.929 -400.39)" fill="#9ec8ff"/><path d="M901.093,506.488H883.312a.532.532,0,0,1,0-1.064h17.781a.532.532,0,0,1,0,1.064Z" transform="translate(-881.247 -491.628)" fill="#9ec8ff"/><rect width="2.204" height="1.064" rx="0.532" transform="translate(21.1 13.796)" fill="#9ec8ff"/><rect width="2.204" height="1.064" rx="0.532" transform="translate(23.873 13.796)" fill="#9ec8ff"/><path d="M937.446,438.929H908a.361.361,0,1,1,0-.722h29.444a.361.361,0,1,1,0,.722Z" transform="translate(-904.056 -429.958)" fill="#9ec8ff"/><path d="M937.446,457.8H908a.361.361,0,1,1,0-.722h29.444a.361.361,0,1,1,0,.722Z" transform="translate(-904.056 -447.276)" fill="#9ec8ff"/></g><g transform="translate(138.632 1.666)"><path d="M2176.418,310.586h-15.185v-8.85h11.42l3.765,3.765Z" transform="translate(-2161.233 -301.736)" fill="#ffb8b3"/><path d="M2296.233,301.736v4.724h4.044v-.908l-3.791-3.791Z" transform="translate(-2285.093 -301.736)" fill="#f39892"/><path d="M2299.612,301.736v3.816h3.765Z" transform="translate(-2288.192 -301.736)" fill="#ffb8b3"/><path d="M2185.768,336.016H2179a.268.268,0,0,1,0-.536h6.767a.268.268,0,0,1,0,.536Z" transform="translate(-2177.289 -332.695)" fill="#fff"/><path d="M2185.768,352.644H2179a.268.268,0,0,1,0-.536h6.767a.268.268,0,0,1,0,.536Z" transform="translate(-2177.289 -347.951)" fill="#fff"/><path d="M2185.768,370.144H2179a.268.268,0,0,1,0-.536h6.767a.268.268,0,0,1,0,.536Z" transform="translate(-2177.289 -364.007)" fill="#fff"/></g><circle cx="0.454" cy="0.454" r="0.454" transform="translate(145.327 1.893)" fill="#3e6bab"/><rect width="9.651" height="11.636" transform="translate(79.393 0.268) rotate(10.935)" fill="#fe8076"/><path d="M1471.67,350.585l-5.023-.971a.248.248,0,0,1,.094-.486l5.024.971a.248.248,0,1,1-.094.486Z" transform="translate(-1384.818 -343.547)" fill="#9ec8ff"/><path d="M1468.73,365.8l-5.023-.971a.248.248,0,0,1,.094-.486l5.024.971a.248.248,0,0,1-.094.486Z" transform="translate(-1382.12 -357.509)" fill="#9ec8ff"/><path d="M1465.709,381.44l-5.024-.971a.248.248,0,0,1,.094-.486l5.024.971a.248.248,0,0,1-.094.486Z" transform="translate(-1379.347 -371.855)" fill="#9ec8ff"/><path d="M1479.451,297.9a.412.412,0,1,1-.327-.483A.412.412,0,0,1,1479.451,297.9Z" transform="translate(-1395.996 -296.102)" fill="#3e6bab"/><path d="M2267.121,439.665l-14.664-1.545.968-9.192,11.627,1.225,2.717,3.357Z" transform="translate(-2106.337 -416.765)" fill="#9ec8ff"/><path d="M2272.128,438.935l-10.915-1.15-.817,7.755,13.57,1.43.479-4.541-2.655-.28Z" transform="translate(-2113.621 -424.891)" fill="#fff"/><path d="M2303.074,471.011l-7.071-.745a.3.3,0,1,1,.063-.589l7.07.745a.3.3,0,1,1-.062.589Z" transform="translate(-2146.04 -454.15)" fill="#9ec8ff"/><path d="M2301.085,489.893l-7.071-.745a.3.3,0,1,1,.062-.589l7.071.745a.3.3,0,0,1-.062.589Z" transform="translate(-2144.215 -471.474)" fill="#9ec8ff"/><path d="M2299.008,509.606l-7.071-.745a.3.3,0,0,1,.062-.589l7.071.745a.3.3,0,1,1-.062.589Z" transform="translate(-2142.309 -489.56)" fill="#9ec8ff"/><circle cx="0.454" cy="0.454" r="0.454" transform="translate(152.137 13.831)" fill="#3e6bab"/><g transform="translate(0 40.964)"><rect width="31.909" height="13.149" rx="6.575" transform="translate(31.909 13.149) rotate(180)" fill="#9ec8ff"/><path d="M718.06,900.943V908.2l-8.36-8.36S717.89,900.943,718.06,900.943Z" transform="translate(-690.005 -889.778)" fill="#9ec8ff"/><rect width="28.608" height="10.542" rx="5.271" transform="translate(30.259 11.846) rotate(180)" fill="#fff"/><path d="M642.618,812.718H655.54a.567.567,0,0,0,0-1.134H642.618a.567.567,0,0,0,0,1.134Z" transform="translate(-627.938 -808.807)" fill="#9ec8ff"/><rect width="24.598" height="0.637" rx="0.318" transform="translate(28.168 6.078) rotate(180)" fill="#9ec8ff"/><rect width="24.598" height="0.637" rx="0.318" transform="translate(28.168 7.311) rotate(180)" fill="#9ec8ff"/></g><g transform="translate(205.438 42.496)"><rect width="2.7" height="2.43" rx="1.215" transform="translate(12.517 2.43) rotate(180)" fill="#9ec8ff"/><path d="M1.215,0h.27A1.215,1.215,0,0,1,2.7,1.215v0A1.215,1.215,0,0,1,1.485,2.43h-.27A1.215,1.215,0,0,1,0,1.215v0A1.215,1.215,0,0,1,1.215,0Z" transform="translate(7.608 2.43) rotate(180)" fill="#9ec8ff"/><rect width="2.7" height="2.43" rx="1.215" transform="translate(2.7 2.43) rotate(180)" fill="#9ec8ff"/></g></g></svg>