<svg xmlns="http://www.w3.org/2000/svg" xmlns:xlink="http://www.w3.org/1999/xlink" width="167.572" height="167.572" viewBox="0 0 167.572 167.572"><defs><linearGradient id="a" x1="1.13" y1="1.295" x2="0.236" y2="0.19" gradientUnits="objectBoundingBox"><stop offset="0" stop-color="#dae3fe"/><stop offset="1" stop-color="#e9effd"/></linearGradient><clipPath id="b"><rect width="161.343" height="118.379" fill="none"/></clipPath><linearGradient id="c" x1="2.527" y1="-0.085" x2="-5.096" y2="2.115" gradientUnits="objectBoundingBox"><stop offset="0" stop-color="#fdf53f"/><stop offset="1" stop-color="#d93c65"/></linearGradient><linearGradient id="d" x1="0.924" y1="-17.292" x2="0.022" y2="20.575" xlink:href="#c"/><linearGradient id="e" x1="0.517" y1="0.311" x2="-0.175" y2="7.927" xlink:href="#c"/><linearGradient id="f" x1="0.576" y1="-0.411" x2="0.473" y2="0.535" gradientUnits="objectBoundingBox"><stop offset="0" stop-color="#09005d"/><stop offset="1" stop-color="#1a0f91"/></linearGradient><linearGradient id="g" x1="0.71" y1="-0.618" x2="0.55" y2="0.237" gradientUnits="objectBoundingBox"><stop offset="0" stop-color="#53d8ff"/><stop offset="1" stop-color="#3840f7"/></linearGradient><linearGradient id="h" x1="0.46" y1="0.039" x2="0.699" y2="1.932" xlink:href="#f"/><linearGradient id="i" x1="0.432" y1="-0.021" x2="0.682" y2="1.862" xlink:href="#g"/><linearGradient id="j" x1="3.239" y1="-3.652" x2="0.259" y2="1.068" gradientUnits="objectBoundingBox"><stop offset="0" stop-color="#febbba"/><stop offset="1" stop-color="#ff928e"/></linearGradient><linearGradient id="k" x1="0.761" y1="-0.048" x2="0.425" y2="0.603" gradientUnits="objectBoundingBox"><stop offset="0" stop-color="#cb236d"/><stop offset="1" stop-color="#4c246d"/></linearGradient><linearGradient id="l" x1="1.054" y1="0.367" x2="-6.997" y2="2.473" xlink:href="#j"/><linearGradient id="m" x1="0.936" y1="0.335" x2="0.26" y2="0.635" xlink:href="#k"/><linearGradient id="n" x1="0.116" y1="0.841" x2="0.878" y2="0.201" gradientUnits="objectBoundingBox"><stop offset="0" stop-color="#4f52ff"/><stop offset="1" stop-color="#4042e2"/></linearGradient><linearGradient id="o" x1="0" y1="0.5" x2="1" y2="0.5" xlink:href="#j"/><linearGradient id="p" x1="0.3" y1="-0.745" x2="1.481" y2="-1.553" xlink:href="#j"/><linearGradient id="q" x1="-7.267" y1="1.127" x2="-8.459" y2="2.418" xlink:href="#j"/><linearGradient id="r" x1="-5.663" y1="1.144" x2="-4.641" y2="1.144" xlink:href="#f"/><linearGradient id="s" x1="-24.646" y1="4.948" x2="-21.987" y2="2.395" xlink:href="#j"/><linearGradient id="t" x1="0.023" y1="0.867" x2="1.202" y2="-0.024" xlink:href="#n"/><linearGradient id="u" x1="0.772" y1="-6.301" x2="0.569" y2="-1.295" xlink:href="#f"/><linearGradient id="v" x1="0.603" y1="-13.733" x2="0.829" y2="-13.733" xlink:href="#j"/><linearGradient id="w" y1="0.5" x2="1" y2="0.5" gradientUnits="objectBoundingBox"><stop offset="0" stop-color="#9cfffb"/><stop offset="1" stop-color="#9bfffa"/></linearGradient><linearGradient id="y" x1="-0.157" y1="8.799" x2="1.024" y2="-6.179" xlink:href="#f"/><linearGradient id="z" x1="1.046" y1="-0.122" x2="2.927" y2="-1.956" xlink:href="#f"/><linearGradient id="aa" x1="-0.242" y1="16.468" x2="3.654" y2="-68.039" xlink:href="#n"/><linearGradient id="ab" x1="-0.184" y1="12.505" x2="3.037" y2="-44.653" xlink:href="#n"/><linearGradient id="ac" x1="-0.226" y1="13.458" x2="2.936" y2="-43.653" xlink:href="#n"/><linearGradient id="ad" x1="-0.328" y1="14.664" x2="3.02" y2="-42.988" xlink:href="#n"/><linearGradient id="ae" x1="0.506" y1="0.248" x2="0.445" y2="1.228" gradientUnits="objectBoundingBox"><stop offset="0" stop-color="#ff928e"/><stop offset="1" stop-color="#fe7062"/></linearGradient><linearGradient id="af" x1="10.255" y1="-1.046" x2="-3.142" y2="1.07" gradientUnits="objectBoundingBox"><stop offset="0" stop-color="#e1473d"/><stop offset="1" stop-color="#e9605a"/></linearGradient><linearGradient id="ag" x1="11.34" y1="-1.209" x2="-2.057" y2="0.907" xlink:href="#af"/><linearGradient id="ah" x1="0.933" y1="1.761" x2="0.629" y2="0.615" xlink:href="#n"/></defs><path d="M653.647,641.029a59.258,59.258,0,0,1-9.072,7.621c-29.595,21.186-64.613,15.01-72.055,13.5-10.99-2.227-32.234-6.532-47.592-24.552-23.237-27.263-19.618-70.214-1.594-98.568,3.3-5.186,20.712-33.971,56.107-38.587,21.421-2.794,46.391,2.841,64.474,17.956C681.87,550.128,679.168,614.222,653.647,641.029Z" transform="translate(-505.838 -497.058)" fill="url(#a)"/><g transform="translate(0 4.188)"><g transform="translate(0 16.362)"><g transform="translate(19.118 16.883)" opacity="0.3"><path d="M889.579,1076.255a.71.71,0,0,1,.859.4c.311.739.594,1.5.841,2.27a.71.71,0,0,1-.457.894l-.013,0a.71.71,0,0,1-.88-.461c-.235-.729-.5-1.454-.8-2.156a.71.71,0,0,1,.379-.929A.731.731,0,0,1,889.579,1076.255Zm1.744,5.932a.746.746,0,0,1,.082-.02.71.71,0,0,1,.823.575c.141.793.249,1.6.321,2.4a.71.71,0,1,1-1.414.129c-.069-.758-.172-1.525-.305-2.278A.71.71,0,0,1,891.323,1082.187Zm.394,6.168a.711.711,0,0,1,.914.714c-.039.8-.114,1.613-.222,2.41a.71.71,0,0,1-1.407-.191c.1-.757.174-1.526.211-2.288A.71.71,0,0,1,891.717,1088.355Zm-.995,6.1a.71.71,0,0,1,.888.872c-.218.774-.472,1.548-.755,2.3a.71.71,0,1,1-1.329-.5c.269-.714.51-1.449.717-2.185A.709.709,0,0,1,890.722,1094.458Zm-2.331,5.728a.71.71,0,0,1,.829,1.018c-.383.7-.8,1.4-1.245,2.075a.71.71,0,1,1-1.185-.781c.421-.639.819-1.3,1.183-1.972A.708.708,0,0,1,888.391,1100.186Zm-3.54,5.069a.71.71,0,0,1,.739,1.148c-.53.6-1.093,1.192-1.673,1.748a.71.71,0,0,1-.983-1.024c.551-.529,1.086-1.087,1.59-1.661A.705.705,0,0,1,884.852,1105.255Zm-24.407,9.137a.71.71,0,0,1,.3-.024c.756.1,1.526.171,2.289.207a.71.71,0,0,1-.067,1.418c-.8-.038-1.616-.111-2.411-.218a.71.71,0,0,1-.111-1.383Zm19.835-4.981a.71.71,0,0,1,.621,1.255c-.651.47-1.331.918-2.02,1.331a.71.71,0,1,1-.729-1.218c.655-.392,1.3-.817,1.919-1.263A.707.707,0,0,1,880.28,1109.411Zm-13.654,5.106a.7.7,0,0,1,.14-.027c.76-.071,1.526-.175,2.279-.31a.71.71,0,1,1,.251,1.4c-.792.142-1.6.252-2.4.326a.71.71,0,0,1-.272-1.386Zm8.268-2.076a.71.71,0,0,1,.481,1.333c-.739.312-1.5.6-2.267.845l-.014,0a.71.71,0,0,1-.424-1.354c.727-.236,1.451-.507,2.153-.8C874.846,1112.458,874.87,1112.449,874.894,1112.442Z" transform="translate(-855.08 -1076.225)" fill="#7d97f4"/><path d="M779.794,1690.8a.705.705,0,0,1,.424,0c.348.113.7.221,1.059.321a.71.71,0,1,1-.384,1.366c-.373-.1-.747-.218-1.114-.337a.71.71,0,0,1,.015-1.354Z" transform="translate(-779.289 -1653.743)" fill="#7d97f4"/></g><g opacity="0.3"><path d="M508.766,1455.257a.71.71,0,0,1,.843.37c.16.329.329.661.5.985a.71.71,0,1,1-1.25.672c-.184-.341-.362-.69-.53-1.037a.71.71,0,0,1,.328-.948A.692.692,0,0,1,508.766,1455.257Z" transform="translate(-505.474 -1415.505)" fill="#7d97f4"/><path d="M482.14,797.24q.469-.142.946-.268a.71.71,0,0,1,.365,1.372c-.734.2-1.459.419-2.162.67a.71.71,0,1,1-.477-1.337C481.247,797.522,481.694,797.375,482.14,797.24Zm4.625-.981a.713.713,0,0,1,.118-.025c.786-.1,1.584-.164,2.374-.2a.71.71,0,1,1,.057,1.418c-.75.03-1.508.093-2.255.186a.71.71,0,0,1-.294-1.383Zm-9.375,2.912a.71.71,0,0,1,.532,1.309c-.665.346-1.325.725-1.96,1.127a.71.71,0,0,1-.759-1.2c.669-.423,1.364-.823,2.064-1.187A.726.726,0,0,1,477.39,799.172Zm15.46-3a.709.709,0,0,1,.274-.027c.787.077,1.581.189,2.359.332a.71.71,0,0,1-.257,1.4c-.738-.136-1.492-.242-2.24-.315a.71.71,0,0,1-.136-1.386Zm-20.511,6.381a.71.71,0,0,1,.663,1.222c-.573.483-1.133,1-1.664,1.53a.71.71,0,1,1-1-1c.56-.56,1.149-1.1,1.752-1.611A.709.709,0,0,1,472.338,802.557Zm-4.186,4.412a.71.71,0,0,1,.771,1.108c-.454.6-.889,1.224-1.291,1.857a.71.71,0,1,1-1.2-.761c.424-.667.881-1.325,1.359-1.955A.707.707,0,0,1,468.152,806.968Zm-3.125,5.219a.71.71,0,0,1,.85.975c-.314.684-.6,1.388-.856,2.094a.71.71,0,0,1-1.335-.482c.268-.743.571-1.484.9-2.2A.709.709,0,0,1,465.027,812.187Zm-1.912,5.776a.71.71,0,0,1,.9.827c-.156.736-.283,1.486-.376,2.231a.71.71,0,1,1-1.408-.176c.1-.784.232-1.575.4-2.349A.71.71,0,0,1,463.115,817.964Zm-.6,6.057a.711.711,0,0,1,.915.67c.01.75.052,1.509.125,2.258a.71.71,0,0,1-1.413.138c-.077-.788-.121-1.587-.131-2.377A.71.71,0,0,1,462.517,824.021Zm.747,6.037.042-.011a.71.71,0,0,1,.854.527c.127.538.273,1.079.433,1.608q.087.287.179.571a.71.71,0,0,1-.455.895.7.7,0,0,1-.895-.455q-.1-.3-.189-.6c-.168-.556-.321-1.125-.455-1.691A.71.71,0,0,1,463.264,830.058Z" transform="translate(-462.013 -796.038)" fill="#7d97f4"/><path d="M1064.953,818.832a.707.707,0,0,1,.427.006c.365.121.734.251,1.1.388a.71.71,0,0,1-.5,1.328c-.345-.13-.7-.254-1.042-.369a.71.71,0,0,1,.018-1.353Z" transform="translate(-1028.147 -817.43)" fill="#7d97f4"/></g><g transform="translate(7.057 7.205)"><path d="M610.334,917.966a.332.332,0,0,0-.385.01l-3.224,2.43a17.586,17.586,0,0,0-5.583-1.136l-2.02-3.492a.332.332,0,0,0-.351-.159l-4.753.926a.332.332,0,0,0-.265.279l-.562,4a17.588,17.588,0,0,0-4.749,3.148l-3.9-1.042a.332.332,0,0,0-.361.135l-2.706,4.016a.332.332,0,0,0,.01.385l2.43,3.224a17.588,17.588,0,0,0-1.136,5.583l-3.492,2.02a.331.331,0,0,0-.159.35l.926,4.753a.332.332,0,0,0,.279.265l4,.562a17.582,17.582,0,0,0,3.148,4.749l-1.042,3.9a.332.332,0,0,0,.135.361l4.016,2.706a.332.332,0,0,0,.385-.01l3.224-2.43a17.582,17.582,0,0,0,5.583,1.136l2.02,3.492a.332.332,0,0,0,.351.159l4.753-.926a.332.332,0,0,0,.265-.279l.562-4a17.581,17.581,0,0,0,4.749-3.148l3.9,1.042a.332.332,0,0,0,.361-.135l2.706-4.016a.332.332,0,0,0-.01-.385L617,943.216a17.587,17.587,0,0,0,1.136-5.583l3.492-2.02a.331.331,0,0,0,.159-.351l-.926-4.753a.332.332,0,0,0-.279-.265l-4-.562a17.591,17.591,0,0,0-3.148-4.749l1.042-3.9a.332.332,0,0,0-.135-.361Z" transform="translate(-579.12 -915.612)" fill="#91b3fa"/><g transform="translate(16.472 16.472)"><path d="M855.936,1189.171a4.87,4.87,0,1,1-.667.256A4.875,4.875,0,0,1,855.936,1189.171Zm2.476,8.237a3.789,3.789,0,0,0,.517-.2,3.718,3.718,0,1,0-.517.2Z" transform="translate(-852.473 -1188.965)" fill="#bdd0fb"/></g><g transform="translate(9.316 9.458)"><path d="M742.217,1073.085a12.267,12.267,0,0,1,1.194-.3h0q.191-.037.384-.068a12.044,12.044,0,0,1,1.911-.155h.1l.144,0a.284.284,0,1,1-.011.568,11.413,11.413,0,0,0-10.851,7.242,11.331,11.331,0,0,0-.579,6.339,11.537,11.537,0,0,0,.282,1.139,11.4,11.4,0,0,0,22.1-5.5,11.4,11.4,0,0,0-2.705-5.437.284.284,0,1,1,.422-.38,11.936,11.936,0,0,1,2.548,4.528,11.971,11.971,0,0,1-9.167,15.217,11.972,11.972,0,0,1-13.74-8.264,12.244,12.244,0,0,1-.3-1.2,11.971,11.971,0,0,1,8.266-13.741Z" transform="translate(-733.727 -1072.566)" fill="#bdd0fb"/></g></g></g><g transform="translate(37.37)"><g transform="translate(20.386 8.35)" opacity="0.3"><path d="M1641.944,663.094a.438.438,0,0,1,.494.18c.2.311.4.633.585.957a.438.438,0,0,1-.761.435c-.176-.308-.364-.615-.558-.912a.438.438,0,0,1,.127-.607A.444.444,0,0,1,1641.944,663.094Z" transform="translate(-1628.307 -663.076)" fill="#7d97f4"/><path d="M1435.7,712.548a.438.438,0,0,1,.531.251,19.084,19.084,0,0,1,.651,1.815q.058.194.113.39a.454.454,0,0,1-.3.54.438.438,0,0,1-.54-.3q-.052-.187-.108-.373a18.259,18.259,0,0,0-.621-1.731.438.438,0,0,1,.236-.573Zm1.224,4.384a.446.446,0,0,1,.062-.014.438.438,0,0,1,.5.368,18.945,18.945,0,0,1,.208,2.324.438.438,0,1,1-.876.024,18.184,18.184,0,0,0-.2-2.217A.438.438,0,0,1,1436.924,716.932Zm.124,4.55a.444.444,0,0,1,.169-.017.439.439,0,0,1,.394.479,18.914,18.914,0,0,1-.37,2.305.438.438,0,0,1-.855-.192,17.984,17.984,0,0,0,.353-2.2A.439.439,0,0,1,1437.048,721.482Zm-1,4.441a.438.438,0,0,1,.539.568,18.991,18.991,0,0,1-.923,2.144.438.438,0,0,1-.782-.4,18.068,18.068,0,0,0,.88-2.044A.437.437,0,0,1,1436.05,725.923ZM1434,729.985a.438.438,0,0,1,.491.664,19.188,19.188,0,0,1-1.415,1.854.438.438,0,0,1-.663-.573,18.269,18.269,0,0,0,1.35-1.769A.437.437,0,0,1,1434,729.985Zm-2.976,3.441a.438.438,0,0,1,.421.745,18.891,18.891,0,0,1-1.824,1.453.438.438,0,0,1-.5-.718,17.968,17.968,0,0,0,1.739-1.385A.434.434,0,0,1,1431.021,733.426Zm-3.726,2.608a.438.438,0,0,1,.331.807,19,19,0,0,1-2.126.962.439.439,0,0,1-.312-.82,18.016,18.016,0,0,0,2.028-.917A.439.439,0,0,1,1427.3,736.034Zm-6.5,2.021a.431.431,0,0,1,.076-.016,18.186,18.186,0,0,0,1.907-.33c.1-.021.19-.043.283-.067a.438.438,0,0,1,.21.852c-.1.024-.2.048-.3.07a19.086,19.086,0,0,1-2,.345.438.438,0,0,1-.179-.855Z" transform="translate(-1420.485 -709.549)" fill="#7d97f4"/></g><g opacity="0.3"><path d="M1095.122,525.366a.438.438,0,0,1,.259.838,18.14,18.14,0,0,0-2.043.785.438.438,0,1,1-.364-.8,19.087,19.087,0,0,1,2.142-.823Zm2.175-.546.046-.011a19.169,19.169,0,0,1,2.277-.289.438.438,0,0,1,.058.875,18.33,18.33,0,0,0-2.173.276.438.438,0,0,1-.208-.85Zm-6.248,2.4a.438.438,0,0,1,.356.793,18.189,18.189,0,0,0-1.793,1.256.438.438,0,0,1-.545-.687,19,19,0,0,1,1.88-1.317A.438.438,0,0,1,1091.049,527.222Zm10.716-2.7a.441.441,0,0,1,.151-.018,18.827,18.827,0,0,1,2.281.269.438.438,0,1,1-.156.863,18.014,18.014,0,0,0-2.175-.257.438.438,0,0,1-.1-.857Zm-14.219,5.482a.438.438,0,0,1,.44.727,18.022,18.022,0,0,0-1.438,1.65.439.439,0,0,1-.695-.535,19.058,19.058,0,0,1,1.508-1.73A.438.438,0,0,1,1087.546,530.008Zm-2.733,3.545a.438.438,0,0,1,.5.643,18.3,18.3,0,0,0-1,1.947.438.438,0,0,1-.8-.353,19.128,19.128,0,0,1,1.051-2.041A.437.437,0,0,1,1084.814,533.552Zm-1.8,4.1a.439.439,0,0,1,.546.547,17.947,17.947,0,0,0-.506,2.13.438.438,0,0,1-.864-.15,18.912,18.912,0,0,1,.531-2.234A.438.438,0,0,1,1083.009,537.65Z" transform="translate(-1082.178 -524.507)" fill="#7d97f4"/><path d="M1475.824,537.816a.437.437,0,0,1,.257,0c.358.111.715.234,1.06.364a.438.438,0,0,1-.309.821c-.329-.124-.669-.241-1.011-.347a.438.438,0,0,1,0-.838Z" transform="translate(-1451.811 -536.997)" fill="#7d97f4"/></g><g transform="translate(4.415 4.771)"><path d="M1176.341,605.253a.222.222,0,0,0-.258.007l-2.157,1.626a11.766,11.766,0,0,0-3.736-.76l-1.352-2.337a.222.222,0,0,0-.235-.107l-3.181.62a.222.222,0,0,0-.177.187l-.376,2.674a11.762,11.762,0,0,0-3.178,2.107l-2.61-.7a.222.222,0,0,0-.241.09l-1.811,2.687a.222.222,0,0,0,.007.258l1.626,2.158a11.769,11.769,0,0,0-.76,3.736l-2.337,1.352a.222.222,0,0,0-.107.235l.62,3.181a.222.222,0,0,0,.187.177l2.674.376a11.764,11.764,0,0,0,2.107,3.178l-.7,2.61a.222.222,0,0,0,.09.241l2.687,1.811a.222.222,0,0,0,.257-.007l2.158-1.626a11.767,11.767,0,0,0,3.736.76l1.352,2.337a.222.222,0,0,0,.234.107l3.181-.62a.222.222,0,0,0,.177-.187l.376-2.673a11.77,11.77,0,0,0,3.178-2.107l2.61.7a.222.222,0,0,0,.241-.09l1.811-2.687a.222.222,0,0,0-.007-.258l-1.626-2.158a11.762,11.762,0,0,0,.76-3.736l2.337-1.352a.222.222,0,0,0,.107-.235l-.62-3.181a.222.222,0,0,0-.187-.177l-2.673-.376a11.769,11.769,0,0,0-2.107-3.178l.7-2.61a.222.222,0,0,0-.09-.241Z" transform="translate(-1155.454 -603.678)" fill="#91b3fa"/><g transform="translate(10.962 10.962)"><path d="M1339.73,785.733a3.323,3.323,0,1,1-.459.176A3.389,3.389,0,0,1,1339.73,785.733Zm1.656,5.512a2.469,2.469,0,0,0,.334-.128,2.439,2.439,0,0,0-2.077-4.414h0a2.439,2.439,0,0,0,1.742,4.542Z" transform="translate(-1337.365 -785.592)" fill="#bdd0fb"/></g><g transform="translate(5.987 6.08)"><path d="M1260.678,704.94q.4-.12.815-.2a8.312,8.312,0,0,1,1.675-.153h.076a.439.439,0,0,1,.411.311.434.434,0,0,1,.019.136.439.439,0,0,1-.447.429,7.4,7.4,0,0,0-1.566.136h0l-.085.017a7.308,7.308,0,0,0-3.254,1.574,7.421,7.421,0,0,0-1.333,1.474l-.009.014-.028.042a7.334,7.334,0,0,0-1.124,5.536,7.536,7.536,0,0,0,.182.737,7.381,7.381,0,0,0,14.307-3.56,7.379,7.379,0,0,0-1.751-3.52.438.438,0,1,1,.652-.586,8.258,8.258,0,1,1-14.046,7.921,8.4,8.4,0,0,1-.2-.825A8.27,8.27,0,0,1,1260.678,704.94Z" transform="translate(-1254.814 -704.584)" fill="#bdd0fb"/></g></g></g></g><g transform="translate(3.879 49.193)"><g transform="translate(0 0)" clip-path="url(#b)"><g transform="translate(1.488 0.715)"><g transform="translate(7.966 145.824)"><rect width="5.681" height="61.552" transform="translate(27.456 13.792)" fill="url(#c)"/><path d="M2.507,0H47.249a2.507,2.507,0,0,1,2.507,2.507V3.7a0,0,0,0,1,0,0H0a0,0,0,0,1,0,0v-1.2A2.507,2.507,0,0,1,2.507,0Z" transform="translate(5.418 72.825)" fill="url(#d)"/><rect width="62.559" height="17.776" rx="8.888" fill="url(#e)"/></g><g transform="translate(145.777 195.307)"><path d="M2980.726,4552.315c2.547-1.239,22.065-8.2,26.941-15.637a1.725,1.725,0,0,0-.844-.34c-5.515-.667-16.529-1.327-26.287,2.157l-5.174,4.44s-1.741,4.188,1.663,9.3A3.927,3.927,0,0,0,2980.726,4552.315Z" transform="translate(-2974.917 -4535.806)" fill="url(#f)"/><path d="M3040.6,4550.276c-4.876,7.438-24.394,14.4-26.941,15.637a3.928,3.928,0,0,1-3.7-.081c.006.009.011.019.017.027a3.3,3.3,0,0,0,3.955,1.211c5.49-2.172,19.49-8.038,26.744-14.051A1.751,1.751,0,0,0,3040.6,4550.276Z" transform="translate(-3007.853 -4549.405)" fill="url(#g)"/></g><g transform="translate(145.103 201.81)"><path d="M2969.524,4660.229c2.548-1.239,22.066-8.2,26.941-15.637a1.716,1.716,0,0,0-.844-.341c-5.515-.666-16.53-1.327-26.287,2.158l-5.174,4.439s-1.742,4.188,1.662,9.3A3.932,3.932,0,0,0,2969.524,4660.229Z" transform="translate(-2963.715 -4643.72)" fill="url(#h)"/><path d="M3029.4,4658.19c-4.875,7.437-24.394,14.4-26.941,15.636a3.929,3.929,0,0,1-3.7-.08l.017.027a3.3,3.3,0,0,0,3.955,1.211c5.49-2.172,19.49-8.039,26.744-14.051A1.751,1.751,0,0,0,3029.4,4658.19Z" transform="translate(-2996.651 -4657.319)" fill="url(#i)"/></g><g transform="translate(55.024 127.715)"><path d="M2909.252,4510.2a12.118,12.118,0,0,1-5.882,6l5.1,3.558a5.431,5.431,0,0,0,3.918-1.187,2.875,2.875,0,0,0,.365-3.882Q2911.015,4512.4,2909.252,4510.2Z" transform="translate(-2816.92 -4444.152)" fill="url(#j)"/><path d="M1558.422,3478.529c-41.371-51.124-92.436-64.437-92.436-64.437l1.3,12.657,85.98,60.243a13.3,13.3,0,0,0,5.422-6.36A2.013,2.013,0,0,0,1558.422,3478.529Z" transform="translate(-1465.986 -3414.092)" fill="url(#k)"/></g><g transform="translate(14.09 121.864)"><path d="M2898.733,4587.029c-.222,1.768-1.242,4.9-5.375,7.5q2.34,1.806,4.508,3.635a2.459,2.459,0,0,0,2.085.543,5.151,5.151,0,0,0,4.247-3.948,2.3,2.3,0,0,0-.476-1.993C2902.86,4591.732,2901.159,4589.726,2898.733,4587.029Z" transform="translate(-2766.577 -4510.499)" fill="url(#l)"/><path d="M917.878,3392.8c-12.9-14.169-44.662-45.02-79.546-57.826a11.875,11.875,0,0,1-6.6-6.033l-5.218-10.9s-25.437-5.972-41.109,10.469c0,0,.955,15.639,20.639,21.356,18.375,5.337,72.824,27.006,104.94,51.288a2.047,2.047,0,0,0,2.488.017,15.505,15.505,0,0,0,4.834-6.206A2.1,2.1,0,0,0,917.878,3392.8Z" transform="translate(-785.403 -3316.983)" fill="url(#m)"/></g><path d="M686.934,2061.17s5.189,2.275,14.085-1.845,33.085-4.53,33.085-4.53-7.836-29.384,9.578-50.406c0,0,14.025,26.3,23.882,30.228l4.415.2v-18.764s-3.744-23.164-27.427-40.461l-7.374-6.659s-25.928-5.237-43.56,25.751S686.934,2061.17,686.934,2061.17Z" transform="translate(-675.608 -1927.989)" fill="url(#n)"/><path d="M1878.86,1986.444c.247-1.3.34-4.348-2.8-8.061a8.176,8.176,0,0,0-9.578-2.435c-4.769,2.675-6.783,11.412-6.783,11.412l5.042-2.7c.764,2.223,8.21,4.619,8.21,4.619l.042-.016c.072,4.832-.045,18.925-3.465,28.727-1.34,3.84-4.066,10.974,4.934,23.2l4.958-.2S1890.534,2022.1,1878.86,1986.444Z" transform="translate(-1781 -1934.286)" fill="url(#o)"/><g transform="translate(57.935)"><path d="M1534.017,1684.083l-13.807,19.533a3.273,3.273,0,0,0,.286,4.127c1.86,1.99,5,4.793,8.379,5.433a2.629,2.629,0,0,0,2.7-1.14l7.343-11.293S1540.326,1683,1534.017,1684.083Z" transform="translate(-1519.296 -1660.57)" fill="url(#p)"/><path d="M1650.459,1453.809c.23.307,7.7,24.574,7.7,24.574l-13.92,3.979-10.49-21.946S1646.607,1448.666,1650.459,1453.809Z" transform="translate(-1626.57 -1442.992)" fill="url(#q)"/><path d="M1527.1,1315.637l4.43,11.5a2.631,2.631,0,0,0,.4.692c.744.935,2.907,3.138,5.3.781a23.656,23.656,0,0,1,5.155-4.248,2.594,2.594,0,0,1,3.633,1.609,78.251,78.251,0,0,1,2.331,10.072,2.613,2.613,0,0,1-2.042,2.945,57.4,57.4,0,0,1-12.111,1.359,2.586,2.586,0,0,1-2.249-1.453c-1.6-3.247-5.63-11.307-7.145-13.454-1.393-1.974-4.539-1.963-6.142-1.811a2.591,2.591,0,0,1-2.025-.692c-1.279-1.2-2.992-3.628-.552-6.639a2.639,2.639,0,0,0-.156-3.509,4.541,4.541,0,0,1-.336-6.464,6.442,6.442,0,0,1,7.373-2.23,2.574,2.574,0,0,0,2.688-.964,1.33,1.33,0,0,1,.851-.48,2.582,2.582,0,0,0,2.261-2.449,5.3,5.3,0,0,1,3.972-5.148c6.071-2.089,10.063,3.729,10.57,8.143s-6.2,6.3-10.187,6.121c-2.761-.127-4.8,2.41-5.787,3.979A2.622,2.622,0,0,0,1527.1,1315.637Z" transform="translate(-1514.393 -1294.611)" fill="url(#r)"/><path d="M1579,1754.2s-1.213-7.653-4.413-7.936-6.229,2.433-2.932,6.653C1575.751,1758.167,1579,1754.2,1579,1754.2Z" transform="translate(-1566.867 -1719.032)" fill="url(#s)"/></g><path d="M586.548,1988.961s-27.832,17.785-33.925,38.432,7.544,24.71,20.528,26.539l.977-15.766s-9.1,0-3.293-8.618,21.394-14.364,21.394-14.364S631.735,1977.839,586.548,1988.961Z" transform="translate(-551.126 -1945.177)" fill="url(#t)"/><path d="M846.272,2474.151c-.159,0-3.918-.027-5.186-2.416-.865-1.63-.328-3.905,1.6-6.762,5.8-8.615,20.927-14.264,21.568-14.5a.359.359,0,0,1,.247.674c-.155.057-15.551,5.806-21.221,14.228-1.763,2.618-2.287,4.645-1.558,6.021,1.064,2.008,4.519,2.037,4.554,2.037a.359.359,0,0,1,0,.718Z" transform="translate(-823.27 -2380.802)" fill="url(#u)"/><g transform="translate(20.547 93.978)"><path d="M894.228,2868.992s-4.066-6.733,1.289-14.777l35.944,5.962s17.205-2.917,18.028-2.858,12.052,6.989,12.052,6.989-.377.8-3.049.656-.918.324-.918.324l-.1,1.352a3.713,3.713,0,0,1-3.352-1.163c-1.492-1.59-5.639-2.36-5.639-2.36s-8.816,6.526-17.476,3.368Z" transform="translate(-892.75 -2854.215)" fill="url(#v)"/></g><g transform="translate(39.417 106.602)"><g transform="translate(32.771 4.553)"><path d="M1753.508,3250.465a2.091,2.091,0,0,1-.843-.179,2.213,2.213,0,0,1-1.118-2.879l44.774-106.817a2.116,2.116,0,0,1,2.8-1.147,2.213,2.213,0,0,1,1.118,2.878l-44.774,106.817A2.135,2.135,0,0,1,1753.508,3250.465Z" transform="translate(-1751.374 -3139.265)" fill="url(#w)"/><path d="M1892.448,3250.458a2.134,2.134,0,0,1-1.962-1.326l-44.774-106.817a2.213,2.213,0,0,1,1.117-2.878,2.115,2.115,0,0,1,2.8,1.146l44.774,106.817a2.213,2.213,0,0,1-1.117,2.879A2.086,2.086,0,0,1,1892.448,3250.458Z" transform="translate(-1839.875 -3139.258)" fill="url(#w)"/></g><path d="M1324.965,3066.394a4,4,0,0,0-.242-1.867c-.218-.521-.542-.822-.885-.822H1207.823c-.451,0-.87.452-1.112,1.2a4.867,4.867,0,0,0-.086,2.492l1.257,5.359c.288,1.227.911,2.013,1.6,2.013h113.564c.639,0,1.187-.892,1.309-2.126Z" transform="translate(-1206.502 -3063.705)" fill="url(#y)"/></g></g></g></g><g transform="translate(94.374 21.676)"><path d="M2051.84,823.918c-15.217,7.265-25.214,22.384-13.4,21.678,22.185-1.325,7.211,11.031,18.879,10.668s29.728-2.852,41.545-15.1.331-15.172-4.459-14.7C2078.636,828.029,2099.506,801.162,2051.84,823.918Z" transform="translate(-2033.246 -814.728)" fill="#bdd0fb"/><path d="M2256.251,1553.7c.032,1.723,1.3,4.552,4.147,4.5s6.2-2.966,6.164-4.689-2.366-3.077-5.213-3.025S2256.219,1551.98,2256.251,1553.7Z" transform="translate(-2242.813 -1506.151)" fill="#bdd0fb"/><path d="M2185.323,1689.343a1.564,1.564,0,0,0,1.639,1.481c.89-.016,2.65-.9,2.634-1.738a2.084,2.084,0,0,0-2.009-1.652C2186.7,1687.451,2185.307,1688.509,2185.323,1689.343Z" transform="translate(-2176.159 -1634.847)" fill="#bdd0fb"/></g><g transform="translate(112.347 0)"><path d="M2524.468,1148.377c-.023-.289-.319-.539-.819-.74.543-.3.844-.621.819-.936-.077-.953-3.1-1.487-6.741-1.193s-6.54,1.3-6.463,2.258c.023.289.319.539.819.74-.543.3-.844.621-.819.936.023.289.319.539.819.74-.543.3-.844.621-.819.936.023.289.319.539.819.74-.543.3-.844.621-.819.936.034.422.644.761,1.629.983a8.384,8.384,0,0,0,.025,1.03c.142,1.756,2.118,3.133,4.731,3.133s4.874-1.877,4.9-3.639a8.887,8.887,0,0,0-.051-1.15c1.25-.417,2.011-.927,1.972-1.422-.023-.289-.319-.539-.819-.74.543-.3.844-.621.819-.936-.023-.289-.319-.539-.819-.74C2524.193,1149.013,2524.493,1148.692,2524.468,1148.377Z" transform="translate(-2500.431 -1103.824)" fill="url(#z)"/><g transform="translate(11.805 43.901)"><path d="M2544.324,1275.348a15.758,15.758,0,0,1-2.892-.236.087.087,0,1,1,.033-.172,18.865,18.865,0,0,0,4.818.152,20.724,20.724,0,0,0,4.041-.7.088.088,0,1,1,.049.168,20.9,20.9,0,0,1-4.076.7C2545.619,1275.321,2544.956,1275.348,2544.324,1275.348Z" transform="translate(-2540.521 -1268.918)" fill="url(#aa)"/><path d="M2534.47,1240.377a13.766,13.766,0,0,1-3.551-.385.088.088,0,1,1,.048-.168,20.26,20.26,0,0,0,10.736-.853.087.087,0,1,1,.073.159,17.281,17.281,0,0,1-5.352,1.167C2535.756,1240.351,2535.1,1240.377,2534.47,1240.377Z" transform="translate(-2530.648 -1235.624)" fill="url(#ab)"/><path d="M2531.229,1212.572a12.786,12.786,0,0,1-3.743-.451.088.088,0,1,1,.055-.166,16,16,0,0,0,5.647.361,17.115,17.115,0,0,0,5.293-1.152.087.087,0,0,1,.073.159,17.282,17.282,0,0,1-5.352,1.167C2532.523,1212.545,2531.86,1212.572,2531.229,1212.572Z" transform="translate(-2527.426 -1209.493)" fill="url(#ac)"/><path d="M2540.5,1184.959a15.113,15.113,0,0,1-3.153-.287.088.088,0,1,1,.038-.171,18.265,18.265,0,0,0,5.061.2,17.239,17.239,0,0,0,5.266-1.139.088.088,0,0,1,.073.159,17.4,17.4,0,0,1-5.324,1.154C2541.786,1184.932,2541.126,1184.959,2540.5,1184.959Z" transform="translate(-2536.68 -1183.556)" fill="url(#ad)"/></g><path d="M2339.9,491.1a12.321,12.321,0,0,0-2.208-4.311,28.538,28.538,0,0,1-6.147-15.893c-.635-11.045,9.161-16.575,18.1-15.824s17.759,7.406,16.793,17.681c-.594,6.322-4.133,11.118-6.768,13.872a14.634,14.634,0,0,0-3.512,6.223c-.791,2.855-2.672,6.412-7.145,6.629C2343.23,499.754,2340.827,494.36,2339.9,491.1Z" transform="translate(-2331.52 -455)" fill="url(#ae)"/><path d="M2646.323,829.245l3.128-20.342c.064-.42.271-.7.462-.63s.292.471.228.892c0,.011,0,.025-.006.036l-3.562,20.153c-.027.151-.1.247-.172.214S2646.3,829.392,2646.323,829.245Z" transform="translate(-2627.347 -786.975)" fill="url(#af)"/><path d="M2532.716,831.926l-3.128-20.342c-.064-.42-.271-.7-.462-.63s-.292.471-.228.891l.006.036,3.563,20.153c.027.152.1.247.172.214S2532.739,832.073,2532.716,831.926Z" transform="translate(-2516.987 -789.494)" fill="url(#ag)"/><path d="M2554.843,751.551a.328.328,0,0,0-.411-.107l-1.741.814-.6-1.722a.369.369,0,0,0-.212-.213.43.43,0,0,0-.535.165l0,.006L2549.9,753.1l-1.329-3.717,0-.006a.424.424,0,0,0-.2-.227.522.522,0,0,0-.658.13l-2,2.756a.242.242,0,0,0,.071.348.336.336,0,0,0,.426-.046l1.763-1.966,1.587,3.536v0a.282.282,0,0,0,.14.137.332.332,0,0,0,.416-.108l1.531-2.458.577,1.243,0,.011a.3.3,0,0,0,.014.026.328.328,0,0,0,.41.107l2.067-.966A.246.246,0,0,0,2554.843,751.551Z" transform="translate(-2532.761 -731.369)" fill="#fff" opacity="0.79"/><path d="M2795.144,890.233a.3.3,0,0,1-.244-.486,23.271,23.271,0,0,0,1.456-2.213.3.3,0,0,1,.528.3,23.707,23.707,0,0,1-1.5,2.271A.3.3,0,0,1,2795.144,890.233Z" transform="translate(-2766.921 -861.327)" fill="#fff" opacity="0.79"/><path d="M2837.84,627.551a.3.3,0,0,1-.28-.426,18.669,18.669,0,0,0,.425-14.139.3.3,0,0,1,.554-.254,19.3,19.3,0,0,1-.42,14.635A.3.3,0,0,1,2837.84,627.551Z" transform="translate(-2807.044 -603.06)" fill="#fff" opacity="0.79"/></g><g transform="translate(112.395 72.616)"><path d="M2377.183,1798.334c-2.469-5.883-11.411-23.72-27.231-18.211a.242.242,0,0,0,.037.465c3.488.646,16.414,3.911,26.779,17.98A.24.24,0,0,0,2377.183,1798.334Z" transform="translate(-2348.738 -1772.595)" fill="#91b3fa"/><path d="M2360.618,1918.75c-3.556-3.352-14.146-16.32-28.209-10.394a.162.162,0,0,0,.043.312c3.476.367,20.732,2.553,28.1,10.367C2360.745,1919.242,2360.825,1918.946,2360.618,1918.75Z" transform="translate(-2332.308 -1892.644)" fill="#91b3fa"/><path d="M2590.467,1696.092c-.338-4.435-2.319-21.177-13.1-24.631a.087.087,0,0,0-.1.132c1.3,1.832,10.752,15.37,13.032,24.526A.086.086,0,0,0,2590.467,1696.092Z" transform="translate(-2562.492 -1671.457)" fill="#91b3fa"/><path d="M2454.446,2062.916a.093.093,0,0,0,.111-.147c-1.9-1.9-9.791-8.871-19.8-5.437C2423.41,2061.222,2443.271,2056.853,2454.446,2062.916Z" transform="translate(-2425.397 -2033.199)" fill="#91b3fa"/><path d="M2779.264,1726.6a.288.288,0,0,1-.568.047c-1.2-5.259-3.731-19.762,3.647-23.451C2791.075,1698.829,2780.45,1709.4,2779.264,1726.6Z" transform="translate(-2750.477 -1700.358)" fill="#91b3fa"/><path d="M2801.372,1959.5c1.24-3.23,6.018-13.257,15.961-7.839a.191.191,0,0,1-.078.359,23.389,23.389,0,0,0-15.563,7.672A.189.189,0,0,1,2801.372,1959.5Z" transform="translate(-2773.094 -1933.297)" fill="#91b3fa"/><path d="M2805.9,2060.215c.457-1.994,2.836-5.994,14.94-2.33a.063.063,0,0,1-.022.123c-2.378-.247-10.415-.793-14.354,2.552A.349.349,0,0,1,2805.9,2060.215Z" transform="translate(-2777.351 -2033.199)" fill="#91b3fa"/><path d="M2800.019,2153.419l0-.408v-.439l-.007-.879-.011-1.758-.051-3.516q-.047-3.516-.127-7.03c-.106-4.686-.241-9.369-.455-14.048s-.5-9.353-.95-14.009c-.23-2.327-.509-4.649-.884-6.955a39.269,39.269,0,0,0-1.613-6.8l.209-.085a25.342,25.342,0,0,1,1.162,3.341l.236.853c.074.285.138.573.208.859l.2.86.181.865c.468,2.309.829,4.637,1.113,6.972s.506,4.676.7,7.019.313,4.689.43,7.035.178,4.694.232,7.042c.037,2.348.073,4.7.06,7.043s-.038,4.695-.1,7.042l-.125,3.519-.077,1.76-.052.879-.029.44c-.013.148-.016.285-.045.469Z" transform="translate(-2767.99 -2071.82)" fill="#91b3fa"/><g transform="translate(25.474 22.905)"><path d="M2931.542,2136.575c1.654-3.941,7.644-15.89,18.242-12.2a.162.162,0,0,1-.024.312c-2.337.433-11,2.62-17.939,12.045A.161.161,0,0,1,2931.542,2136.575Z" transform="translate(-2920.895 -2119.333)" fill="#91b3fa"/><path d="M2931.99,2217.241c2.383-2.246,9.476-10.933,18.9-6.963a.109.109,0,0,1-.029.209c-2.328.246-13.888,1.71-18.823,6.945C2931.9,2217.571,2931.851,2217.372,2931.99,2217.241Z" transform="translate(-2921.251 -2199.752)" fill="#91b3fa"/><path d="M2936.974,2068.084c.226-2.971,1.554-14.187,8.777-16.5a.058.058,0,0,1,.066.088c-.87,1.227-7.2,10.3-8.73,16.43A.057.057,0,0,1,2936.974,2068.084Z" transform="translate(-2926.012 -2051.581)" fill="#91b3fa"/><path d="M2923.594,2313.816a.062.062,0,0,1-.074-.1c1.276-1.271,6.559-5.942,13.266-3.642C2944.384,2312.682,2931.08,2309.755,2923.594,2313.816Z" transform="translate(-2913.351 -2293.91)" fill="#91b3fa"/><path d="M2860.1,2088.521a.193.193,0,0,0,.381.031c.8-3.523,2.5-13.238-2.443-15.709C2852.19,2069.918,2859.308,2077,2860.1,2088.521Z" transform="translate(-2849.685 -2070.942)" fill="#91b3fa"/><path d="M2765.824,2244.541c-.831-2.163-4.031-8.881-10.692-5.251a.128.128,0,0,0,.052.24,15.666,15.666,0,0,1,10.426,5.139A.127.127,0,0,0,2765.824,2244.541Z" transform="translate(-2755.064 -2226.986)" fill="#91b3fa"/><path d="M2774.082,2312.008c-.306-1.336-1.9-4.015-10.008-1.561a.042.042,0,0,0,.014.083c1.594-.166,6.978-.531,9.616,1.709A.234.234,0,0,0,2774.082,2312.008Z" transform="translate(-2763.502 -2293.91)" fill="#91b3fa"/></g><path d="M2899.844,2373.451c-.024-.148-.025-.247-.034-.359l-.021-.33-.037-.658c-.024-.438-.04-.877-.057-1.316l-.087-2.632c-.058-1.755-.062-3.51-.073-5.266s-.007-3.512.027-5.267.079-3.512.155-5.267.172-3.51.3-5.264.291-3.506.508-5.253l.169-1.31.2-1.306c.141-.87.289-1.739.479-2.6q.129-.649.294-1.292c.054-.214.1-.429.163-.642l.185-.637a18.324,18.324,0,0,1,.9-2.494l.209.085a24.152,24.152,0,0,0-.683,2.519l-.136.638c-.042.214-.076.429-.115.644l-.117.643-.1.646c-.067.431-.135.861-.189,1.294s-.125.863-.171,1.3c-.1.867-.2,1.735-.286,2.6-.335,3.479-.578,6.97-.75,10.467s-.287,7-.377,10.5c-.046,1.752-.059,3.5-.1,5.257l-.032,2.629-.008,1.314,0,.657,0,.625Z" transform="translate(-2865.352 -2291.781)" fill="#91b3fa"/><g transform="translate(6.706 31.655)"><path d="M2461.245,2303.064c-2.113-3.449-9.341-13.745-17.59-8.534a.161.161,0,0,0,.078.29c2.047.027,9.737.678,17.306,8.438C2461.162,2303.384,2461.339,2303.218,2461.245,2303.064Z" transform="translate(-2443.589 -2287.282)" fill="#91b3fa"/><path d="M2467.453,2378.3c-2.417-1.73-9.978-8.77-17.184-3.486a.108.108,0,0,0,.063.192c2.005-.148,12.006-.652,17.118,3.482C2467.585,2378.6,2467.593,2378.4,2467.453,2378.3Z" transform="translate(-2449.828 -2362.271)" fill="#91b3fa"/><path d="M2566.8,2227.505c-.733-2.766-3.9-13.132-10.407-14.136-.047-.007-.074.057-.039.094.957,1.016,7.947,8.54,10.354,14.077A.049.049,0,1,0,2566.8,2227.505Z" transform="translate(-2549.547 -2212.37)" fill="#91b3fa"/><path d="M2539.548,2456.754c.06.022.1-.065.044-.105-1.307-.991-6.609-4.536-11.836-1.272C2521.835,2459.076,2532.5,2454.144,2539.548,2456.754Z" transform="translate(-2521.064 -2438.524)" fill="#91b3fa"/><path d="M2696.2,2212.853a.164.164,0,0,1-.315.092c-1.319-3.193-4.525-12.083-.815-15.221C2699.461,2194.01,2694.763,2201.853,2696.2,2212.853Z" transform="translate(-2678.29 -2196.79)" fill="#91b3fa"/><path d="M2735.956,2351.944c.3-2.177,1.771-9.037,8.043-6.7a.127.127,0,0,1,0,.235,12.852,12.852,0,0,0-7.839,6.55C2736.1,2352.145,2735.938,2352.077,2735.956,2351.944Z" transform="translate(-2718.338 -2335.849)" fill="#91b3fa"/><path d="M2740.14,2420.208c.013-1.31.865-4.1,8.141-3.105.044.006.046.077,0,.08-1.372.1-5.972.637-7.784,3.182A.2.2,0,0,1,2740.14,2420.208Z" transform="translate(-2722.27 -2403.63)" fill="#91b3fa"/></g><path d="M2740.305,2493.159l-.206-1.082-.219-1.109-.449-2.215-.928-4.425q-.474-2.21-.978-4.413t-1.015-4.4q-1.055-4.393-2.3-8.729l-.316-1.082-.329-1.077c-.22-.718-.444-1.435-.692-2.143a31.393,31.393,0,0,0-1.709-4.15l.194-.117a17.341,17.341,0,0,1,1.1,2c.166.342.33.685.473,1.036s.295.7.43,1.053c.556,1.411,1.05,2.843,1.493,4.29.888,2.893,1.613,5.829,2.3,8.769q.51,2.207.985,4.421.456,2.218.882,4.442c.283,1.482.562,2.966.81,4.454l.369,2.234.174,1.119.081.561.039.281c.011.1.027.179.034.31Z" transform="translate(-2707.128 -2410.806)" fill="#91b3fa"/><g transform="translate(26.79 67.688)"><path d="M2778.051,2794.764h9.635c.631,0,1.1.952.957,1.949a71.644,71.644,0,0,1-2.867,13.171c-.279.823-.811,1.339-1.39,1.339h-3.144c-.571,0-1.095-.508-1.365-1.323a64.566,64.566,0,0,1-2.951-12.923C2776.791,2795.829,2777.33,2794.764,2778.051,2794.764Z" transform="translate(-2776.904 -2794.764)" fill="url(#ah)"/></g></g></svg>