<svg xmlns="http://www.w3.org/2000/svg" width="40" height="40" viewBox="0 0 40 40"><path d="M16.383,5.838A10.536,10.536,0,1,0,26.919,16.374,10.535,10.535,0,0,0,16.383,5.838Zm0,17.375a6.839,6.839,0,1,1,6.839-6.839A6.837,6.837,0,0,1,16.383,23.213Z" transform="translate(3.624 3.618)" fill="#ffef00"/><path d="M28.247.126c-3.68-.172-12.8-.163-16.478,0C8.532.278,5.677,1.06,3.375,3.361-.472,7.208.02,12.391.02,19.993c0,7.78-.433,12.843,3.355,16.631,3.862,3.86,9.12,3.355,16.632,3.355,7.707,0,10.367,0,13.092-1.05,3.705-1.438,6.5-4.75,6.775-10.7.173-3.682.163-12.795,0-16.478C39.543,4.731,35.775.473,28.247.126Zm5.825,33.953c-2.522,2.522-6.02,2.3-14.113,2.3-8.333,0-11.675.123-14.113-2.322-2.808-2.795-2.3-7.283-2.3-14.088,0-9.208-.945-15.84,8.3-16.313,2.123-.075,2.748-.1,8.093-.1l.075.05c8.882,0,15.85-.93,16.268,8.31.1,2.108.117,2.742.117,8.078,0,8.237.155,11.6-2.323,14.088Z" transform="translate(0 -0.001)" fill="#ffef00"/><ellipse cx="2.331" cy="2.331" rx="2.331" ry="2.331" transform="translate(28.387 6.952)" fill="#ffef00"/></svg>