<svg xmlns="http://www.w3.org/2000/svg" xmlns:xlink="http://www.w3.org/1999/xlink" width="178.94" height="183.777" viewBox="0 0 178.94 183.777"><defs><linearGradient id="a" x1="1.13" y1="1.295" x2="0.236" y2="0.19" gradientUnits="objectBoundingBox"><stop offset="0" stop-color="#dae3fe"/><stop offset="1" stop-color="#e9effd"/></linearGradient><linearGradient id="b" x1="2.013" y1="-0.184" x2="0.821" y2="0.361" gradientUnits="objectBoundingBox"><stop offset="0" stop-color="#ff928e"/><stop offset="1" stop-color="#fe7062"/></linearGradient><linearGradient id="c" x1="0.97" y1="-0.074" x2="0.045" y2="1.078" xlink:href="#b"/><linearGradient id="d" x1="0.627" y1="-1.564" x2="0.798" y2="-4.01" gradientUnits="objectBoundingBox"><stop offset="0" stop-color="#febbba"/><stop offset="1" stop-color="#ff928e"/></linearGradient><linearGradient id="e" x1="5.83" y1="-11.399" x2="10.163" y2="-21.072" xlink:href="#d"/><linearGradient id="f" y1="0.5" x2="1" y2="0.5" gradientUnits="objectBoundingBox"><stop offset="0" stop-color="#4f52ff"/><stop offset="1" stop-color="#4042e2"/></linearGradient><linearGradient id="g" x1="1.076" y1="0.001" x2="-0.597" y2="1.492" xlink:href="#f"/><linearGradient id="h" x1="2.282" y1="-1.042" x2="0.793" y2="0.258" xlink:href="#f"/><linearGradient id="i" x1="1.163" y1="-0.265" x2="0.155" y2="0.922" xlink:href="#f"/><linearGradient id="j" x1="0.291" y1="-0.023" x2="0.656" y2="1.205" gradientUnits="objectBoundingBox"><stop offset="0" stop-color="#a22b25"/><stop offset="1" stop-color="#c0423c"/></linearGradient><linearGradient id="k" x1="42.401" y1="3.121" x2="42.211" y2="6.841" gradientUnits="objectBoundingBox"><stop offset="0" stop-color="#09005d"/><stop offset="1" stop-color="#1a0f91"/></linearGradient><linearGradient id="l" x1="-0.326" y1="-0.332" x2="0.108" y2="0.178" xlink:href="#j"/><linearGradient id="m" x1="47.969" y1="4.121" x2="47.747" y2="7.23" xlink:href="#k"/><linearGradient id="n" x1="0.602" y1="1.081" x2="0.288" y2="-1.187" xlink:href="#k"/><linearGradient id="o" x1="-14.192" y1="0.631" x2="-13.886" y2="1.413" xlink:href="#k"/><linearGradient id="q" x1="0.399" y1="0.19" x2="0.947" y2="2.368" xlink:href="#j"/><linearGradient id="r" x1="53.199" y1="-93.59" x2="53.228" y2="-91.862" xlink:href="#j"/><linearGradient id="s" x1="36.812" y1="7.127" x2="35.27" y2="9.344" xlink:href="#k"/><linearGradient id="t" x1="228.221" y1="-300.488" x2="228.346" y2="-294.951" xlink:href="#j"/><linearGradient id="u" x1="17.048" y1="0.5" x2="18.048" y2="0.5" xlink:href="#j"/><linearGradient id="v" x1="1.142" y1="-0.929" x2="0.32" y2="0.911" xlink:href="#b"/><linearGradient id="w" x1="-4.739" y1="0.5" x2="-3.739" y2="0.5" xlink:href="#k"/><linearGradient id="x" x1="-3.908" y1="-77.693" x2="-4.091" y2="-37.877" xlink:href="#f"/><linearGradient id="y" x1="49.754" y1="-0.843" x2="49.247" y2="2.39" xlink:href="#d"/><linearGradient id="z" x1="14.255" y1="-22.776" x2="14.127" y2="16.665" xlink:href="#f"/><linearGradient id="aa" x1="13.74" y1="0.5" x2="14.74" y2="0.5" xlink:href="#k"/><linearGradient id="ab" x1="53.92" y1="-0.224" x2="53.405" y2="2.539" xlink:href="#d"/><linearGradient id="ac" x1="1.845" y1="-0.209" x2="-0.819" y2="1.235" xlink:href="#k"/><linearGradient id="ad" x1="1.405" y1="-0.727" x2="0.599" y2="0.24" xlink:href="#b"/><linearGradient id="ae" x1="0.328" y1="1.566" x2="0.733" y2="-0.054" xlink:href="#d"/><linearGradient id="af" x1="89.187" y1="-17.607" x2="90.619" y2="-17.868" xlink:href="#d"/><linearGradient id="ag" x1="-0.599" y1="-1.544" x2="0.541" y2="-1.544" xlink:href="#k"/><linearGradient id="ah" x1="260.741" y1="-59.844" x2="264.922" y2="-60.697" xlink:href="#d"/><linearGradient id="ai" x1="1.592" y1="-0.616" x2="0.587" y2="0.52" xlink:href="#b"/><linearGradient id="aj" x1="0.799" y1="-0.337" x2="0.056" y2="1.68" xlink:href="#d"/><linearGradient id="ak" x1="1.152" y1="-1.139" x2="0.322" y2="0.762" xlink:href="#b"/><linearGradient id="al" x1="49.304" y1="18.683" x2="48.682" y2="21.087" xlink:href="#d"/><linearGradient id="am" x1="-65.028" y1="0.5" x2="-64.028" y2="0.5" gradientUnits="objectBoundingBox"><stop offset="0" stop-color="#2b3582"/><stop offset="0.392" stop-color="#23286c"/><stop offset="1" stop-color="#150e42"/></linearGradient><linearGradient id="an" x1="-66.943" y1="0.5" x2="-65.943" y2="0.5" xlink:href="#k"/><linearGradient id="ao" x1="-232.754" y1="0.5" x2="-231.754" y2="0.5" xlink:href="#d"/><linearGradient id="ap" x1="-180.612" y1="0.5" x2="-179.612" y2="0.5" xlink:href="#am"/><linearGradient id="aq" x1="-122.72" y1="0.5" x2="-121.72" y2="0.5" xlink:href="#k"/><linearGradient id="ar" x1="-203.991" y1="0.5" x2="-202.991" y2="0.5" xlink:href="#d"/><linearGradient id="as" x1="0.88" y1="-0.205" x2="-0.06" y2="1.491" xlink:href="#am"/><linearGradient id="at" x1="6.854" y1="-12.552" x2="-1.009" y2="3.599" xlink:href="#am"/><linearGradient id="au" x1="-38.554" y1="0.308" x2="-39.425" y2="1.354" xlink:href="#d"/><linearGradient id="av" x1="-17.1" y1="-0.057" x2="-18.329" y2="1.819" xlink:href="#f"/><linearGradient id="aw" x1="33.968" y1="-7.688" x2="15.968" y2="-3.284" xlink:href="#f"/><linearGradient id="ax" x1="-122.008" y1="1.478" x2="-121.736" y2="0.434" xlink:href="#d"/><linearGradient id="ay" x1="-86.537" y1="0.35" x2="-87.649" y2="1.106" xlink:href="#d"/><linearGradient id="az" x1="-63.199" y1="0.152" x2="-62.449" y2="1.129" xlink:href="#k"/><linearGradient id="ba" x1="-357.733" y1="-0.685" x2="-362.284" y2="1.784" xlink:href="#d"/><linearGradient id="bb" x1="2.652" y1="-2.02" x2="0.044" y2="0.971" xlink:href="#d"/><linearGradient id="bc" x1="-47.701" y1="-0.752" x2="-48.055" y2="0.28" xlink:href="#d"/><linearGradient id="bd" x1="1.344" y1="-4.334" x2="0.773" y2="-1.249" xlink:href="#d"/><linearGradient id="be" x1="5.267" y1="10.244" x2="4.528" y2="12.707" xlink:href="#k"/><linearGradient id="bf" x1="4.053" y1="0.133" x2="3.655" y2="0.802" xlink:href="#k"/><linearGradient id="bg" x1="0" y1="0.5" x2="1" y2="0.5" xlink:href="#a"/></defs><path d="M637.02,631.762a64.839,64.839,0,0,1-9.9,8.414c-32.289,23.389-70.5,16.571-78.615,14.906-11.991-2.459-35.168-7.211-51.925-27.106-25.352-30.1-21.4-77.518-1.74-108.82,3.6-5.726,22.6-37.5,61.215-42.6,23.371-3.084,50.614,3.136,70.343,19.823C667.813,531.406,664.865,602.167,637.02,631.762Z" transform="translate(-478.821 -474.431)" fill="url(#a)"/><g transform="translate(2.691 40.251)"><g transform="translate(9.437 0)"><path d="M664.079,1170.708a.223.223,0,0,1-.149-.389q.334-.3.678-.59a.223.223,0,1,1,.287.341q-.339.286-.667.581A.222.222,0,0,1,664.079,1170.708Z" transform="translate(-663.856 -1163.005)" fill="#91b3fa"/><path d="M753.935,1097.521h-.007a.223.223,0,0,1-.217-.229q.011-.382.011-.766c0-.333-.006-.669-.018-1a.223.223,0,0,1,.215-.231.228.228,0,0,1,.231.215c.012.335.018.677.018,1.015q0,.39-.011.778A.223.223,0,0,1,753.935,1097.521Zm-.258-4.658a.223.223,0,0,1-.221-.192c-.081-.58-.181-1.166-.3-1.74a.223.223,0,1,1,.437-.089c.119.583.221,1.178.3,1.767a.223.223,0,0,1-.19.252Zm-1.02-4.552a.223.223,0,0,1-.213-.157c-.174-.558-.369-1.119-.578-1.668a.223.223,0,0,1,.417-.159c.213.558.41,1.128.587,1.694a.223.223,0,0,1-.147.279A.226.226,0,0,1,752.656,1088.311Zm-1.746-4.327a.223.223,0,0,1-.2-.123c-.263-.524-.545-1.046-.84-1.552a.223.223,0,0,1,.386-.224c.3.514.586,1.045.853,1.576a.223.223,0,0,1-.2.323ZM748.486,1080a.223.223,0,0,1-.181-.092c-.343-.472-.707-.941-1.081-1.392a.223.223,0,1,1,.343-.285c.38.459.75.935,1.1,1.414a.223.223,0,0,1-.18.354Zm-3.045-3.529a.223.223,0,0,1-.156-.064c-.417-.41-.853-.812-1.3-1.2a.223.223,0,1,1,.292-.337c.451.39.894.8,1.317,1.215a.223.223,0,0,1-.156.382Zm-3.584-2.983a.221.221,0,0,1-.128-.04c-.479-.336-.975-.662-1.475-.968a.223.223,0,0,1,.233-.38c.508.311,1.012.642,1.5.983a.223.223,0,0,1-.128.406Zm-32.4-.229a.223.223,0,0,1-.126-.407c.492-.335,1-.659,1.513-.962a.223.223,0,0,1,.227.384c-.5.3-1,.617-1.489.947A.222.222,0,0,1,709.456,1073.259Zm28.378-2.129a.222.222,0,0,1-.1-.022c-.526-.253-1.069-.494-1.613-.715a.223.223,0,0,1,.168-.413c.552.225,1.1.469,1.638.727a.223.223,0,0,1-.1.424Zm-24.32-.171a.223.223,0,0,1-.094-.426c.494-.229,1-.447,1.511-.649l.138-.054a.223.223,0,0,1,.163.415l-.137.054c-.5.2-1,.413-1.487.639A.224.224,0,0,1,713.514,1070.959Zm19.966-1.5a.22.22,0,0,1-.063-.009c-.563-.165-1.138-.314-1.708-.444a.223.223,0,1,1,.1-.435c.58.131,1.163.283,1.735.451a.223.223,0,0,1-.063.437Zm-15.588-.11a.223.223,0,0,1-.06-.438c.575-.16,1.161-.3,1.742-.427a.223.223,0,1,1,.093.436c-.572.122-1.149.263-1.715.421A.217.217,0,0,1,717.892,1069.346Zm11.019-.832-.027,0c-.582-.071-1.173-.124-1.758-.159a.223.223,0,0,1-.21-.236.221.221,0,0,1,.236-.209c.594.035,1.2.089,1.786.161a.223.223,0,0,1-.027.444Zm-6.437-.047a.223.223,0,0,1-.023-.445c.592-.063,1.193-.109,1.788-.135a.223.223,0,1,1,.02.446c-.585.026-1.177.07-1.76.133Z" transform="translate(-706.258 -1067.887)" fill="#91b3fa"/><path d="M1382.594,1558.71a.215.215,0,0,1-.036,0,.223.223,0,0,1-.184-.256q.072-.436.129-.875a.223.223,0,1,1,.442.058q-.058.446-.13.889A.223.223,0,0,1,1382.594,1558.71Z" transform="translate(-1335.275 -1525.297)" fill="#91b3fa"/></g><g transform="translate(0 22.586)"><path d="M1204.886,1848.8a.223.223,0,0,1-.129-.405q.362-.256.714-.522a.223.223,0,1,1,.269.356q-.358.271-.726.53A.221.221,0,0,1,1204.886,1848.8Z" transform="translate(-1159.777 -1819.287)" fill="#91b3fa"/><path d="M548.563,1500.1q-.44,0-.88-.014a.223.223,0,0,1,.014-.446q.867.027,1.738,0a.223.223,0,1,1,.014.446Q549.006,1500.1,548.563,1500.1Zm-3.707-.244-.029,0c-.58-.077-1.166-.172-1.741-.285a.223.223,0,1,1,.085-.438c.567.111,1.143.2,1.714.281a.223.223,0,0,1-.029.444Zm7.421,0a.223.223,0,0,1-.029-.444c.572-.076,1.149-.171,1.714-.282a.223.223,0,1,1,.086.438c-.574.113-1.16.209-1.741.286Zm-11.909-.965a.226.226,0,0,1-.064-.009c-.56-.169-1.123-.357-1.673-.561a.223.223,0,1,1,.155-.418c.541.2,1.095.385,1.647.552a.223.223,0,0,1-.064.437Zm16.4-.006a.223.223,0,0,1-.065-.437c.551-.167,1.106-.353,1.647-.554a.223.223,0,1,1,.155.418c-.55.2-1.112.393-1.672.562A.222.222,0,0,1,556.765,1498.885Zm-20.672-1.667a.221.221,0,0,1-.1-.023c-.527-.256-1.052-.532-1.561-.82a.223.223,0,0,1,.22-.388c.5.283,1.018.555,1.537.808a.223.223,0,0,1-.1.424Zm24.947-.009a.223.223,0,0,1-.1-.423c.52-.253,1.037-.525,1.537-.808a.223.223,0,0,1,.22.388c-.509.288-1.034.564-1.562.821A.224.224,0,0,1,561.039,1497.209Zm-28.9-2.325a.222.222,0,0,1-.128-.041c-.479-.338-.953-.694-1.409-1.06a.223.223,0,0,1,.279-.348c.449.36.916.711,1.387,1.044a.223.223,0,0,1-.129.405Zm-3.524-2.938a.222.222,0,0,1-.156-.064c-.418-.41-.829-.839-1.22-1.273a.223.223,0,0,1,.331-.3c.385.428.789.849,1.2,1.253a.223.223,0,0,1-.156.382Zm-3-3.47a.222.222,0,0,1-.18-.091c-.346-.472-.682-.962-1-1.455a.223.223,0,1,1,.375-.241c.311.485.642.967.982,1.432a.223.223,0,0,1-.18.355Zm-2.4-3.91a.223.223,0,0,1-.2-.122c-.265-.522-.517-1.059-.75-1.6a.223.223,0,0,1,.409-.178c.229.529.478,1.058.739,1.571a.223.223,0,0,1-.1.3A.22.22,0,0,1,523.211,1484.565Zm-1.747-4.245a.223.223,0,0,1-.212-.155c-.179-.558-.343-1.128-.488-1.7a.223.223,0,1,1,.432-.11c.142.559.3,1.12.48,1.669a.223.223,0,0,1-.212.291Zm-1.048-4.47a.223.223,0,0,1-.221-.19c-.087-.58-.157-1.17-.207-1.752a.223.223,0,1,1,.444-.039c.05.574.119,1.154.2,1.724a.223.223,0,0,1-.188.254A.206.206,0,0,1,520.416,1475.85Zm-.31-4.58h0a.223.223,0,0,1-.22-.226c.008-.586.035-1.179.079-1.763a.223.223,0,0,1,.445.034c-.044.574-.07,1.158-.078,1.735A.223.223,0,0,1,520.106,1471.269Z" transform="translate(-519.883 -1465.364)" fill="#91b3fa"/><path d="M526.778,1413.791a.228.228,0,0,1-.039,0,.223.223,0,0,1-.18-.259q.079-.443.172-.882a.223.223,0,1,1,.437.092q-.091.432-.169.868A.223.223,0,0,1,526.778,1413.791Z" transform="translate(-526.117 -1412.47)" fill="#91b3fa"/></g><g transform="translate(7.428 7.113)"><path d="M633.806,1190.8a.342.342,0,0,0,.071.39l2.977,2.9a18.1,18.1,0,0,0-.279,5.858l-3.235,2.6a.341.341,0,0,0-.107.381l1.688,4.69a.342.342,0,0,0,.326.226l4.152-.056a18.108,18.108,0,0,0,3.948,4.336l-.447,4.131a.342.342,0,0,0,.194.346l4.51,2.123a.341.341,0,0,0,.39-.071l2.9-2.977a18.1,18.1,0,0,0,5.858.279l2.6,3.235a.341.341,0,0,0,.382.107l4.69-1.688a.341.341,0,0,0,.226-.326l-.056-4.152a18.1,18.1,0,0,0,4.336-3.948l4.131.447a.342.342,0,0,0,.346-.194l2.123-4.509a.341.341,0,0,0-.071-.39l-2.977-2.9a18.1,18.1,0,0,0,.279-5.858l3.235-2.6a.342.342,0,0,0,.107-.382l-1.688-4.69a.341.341,0,0,0-.326-.225l-4.152.056a18.1,18.1,0,0,0-3.948-4.337l.447-4.131a.341.341,0,0,0-.194-.346L661.733,1177a.341.341,0,0,0-.39.071l-2.9,2.977a18.1,18.1,0,0,0-5.858-.279l-2.6-3.235a.341.341,0,0,0-.382-.107l-4.69,1.688a.342.342,0,0,0-.226.326l.056,4.152a18.1,18.1,0,0,0-4.336,3.948l-4.131-.448a.342.342,0,0,0-.346.194Z" transform="translate(-633.213 -1176.41)" fill="#91b3fa"/><g transform="translate(16.696 16.693)"><path d="M892.7,1440.609a4.807,4.807,0,0,1-.921-.089,4.728,4.728,0,0,1-3.037-2.013h0a4.756,4.756,0,1,1,3.958,2.1Zm-.018-8.854a4.093,4.093,0,0,0-3.385,6.378h0a4.091,4.091,0,1,0,4.177-6.3A4.133,4.133,0,0,0,892.684,1431.756Z" transform="translate(-887.933 -1431.086)" fill="#bdd0fb"/></g><path d="M787.32,1340.431a12.384,12.384,0,0,1-11.623-8.182h0a12.465,12.465,0,0,1-.588-2.3c0-.031-.01-.061-.014-.092-.008-.054-.016-.108-.023-.162l.663-.089a11.8,11.8,0,0,0,.591,2.418h0a11.686,11.686,0,1,0,1.954-11.369l-.518-.423a12.357,12.357,0,1,1,9.557,20.2Z" transform="translate(-765.774 -1306.572)" fill="#bdd0fb"/></g></g><g transform="translate(43.59 22.141)"><g transform="translate(0)"><path d="M1155.718,1088.181a.223.223,0,0,1-.216-.167c-.075-.288-.143-.585-.2-.881a.223.223,0,1,1,.437-.088c.058.289.124.577.2.857a.223.223,0,0,1-.216.279Z" transform="translate(-1154.981 -1067.59)" fill="#91b3fa"/><path d="M1150.733,809.452a.223.223,0,0,1-.223-.221v-.1a16.55,16.55,0,0,1,.084-1.66l.016-.155a.223.223,0,1,1,.443.047l-.016.153a16.084,16.084,0,0,0-.082,1.615v.1a.223.223,0,0,1-.221.225Zm.723-4.9a.226.226,0,0,1-.066-.01.223.223,0,0,1-.147-.279,16.267,16.267,0,0,1,.675-1.8.223.223,0,0,1,.408.181,15.827,15.827,0,0,0-.656,1.747A.223.223,0,0,1,1151.456,804.556Zm2.177-4.446a.223.223,0,0,1-.182-.351,16.387,16.387,0,0,1,1.191-1.5.223.223,0,1,1,.333.3,15.92,15.92,0,0,0-1.158,1.463A.223.223,0,0,1,1153.633,800.11Zm3.428-3.572a.223.223,0,0,1-.136-.4,16.518,16.518,0,0,1,1.589-1.073.223.223,0,1,1,.228.384,16.017,16.017,0,0,0-1.546,1.044A.221.221,0,0,1,1157.061,796.538Zm15.91-2.094a.224.224,0,0,1-.085-.017,15.812,15.812,0,0,0-1.764-.607.223.223,0,0,1,.12-.43,16.3,16.3,0,0,1,1.814.624.223.223,0,0,1-.085.429Zm-11.565-.273a.223.223,0,0,1-.075-.433,16.316,16.316,0,0,1,1.841-.54.223.223,0,1,1,.1.435,15.831,15.831,0,0,0-1.79.525A.22.22,0,0,1,1161.406,794.172Zm6.752-.884h-.019c-.444-.037-.9-.048-1.335-.055q-.266,0-.531.009a.223.223,0,0,1-.015-.446c.184-.006.359-.006.555-.009.451,0,.91.019,1.363.056a.223.223,0,0,1-.018.445Z" transform="translate(-1150.51 -792.786)" fill="#91b3fa"/><path d="M1532.264,834.257a.221.221,0,0,1-.133-.044c-.237-.176-.479-.346-.72-.5a.223.223,0,1,1,.246-.372c.248.164.5.338.74.519a.223.223,0,0,1-.133.4Z" transform="translate(-1506.351 -830.643)" fill="#91b3fa"/></g><g transform="translate(5.92 13.384)"><path d="M1638.609,998.3a.223.223,0,0,1-.221-.2c-.033-.291-.075-.584-.124-.871a.223.223,0,1,1,.439-.075c.051.295.093.6.127.9a.223.223,0,0,1-.2.247Z" transform="translate(-1612.209 -996.974)" fill="#91b3fa"/><path d="M1298.116,1071.9h0c-.428-.01-.862-.036-1.291-.079q-.3-.03-.59-.07a.223.223,0,0,1,.061-.442q.285.039.575.068c.417.042.839.068,1.256.077a.223.223,0,0,1-.005.446Zm3.014-.216a.223.223,0,0,1-.037-.443,15.776,15.776,0,0,0,1.789-.409.223.223,0,0,1,.125.429,16.3,16.3,0,0,1-1.84.42A.225.225,0,0,1,1301.13,1071.681Zm-7.812-.619a.222.222,0,0,1-.071-.012,16.183,16.183,0,0,1-1.751-.7.223.223,0,0,1,.19-.4,15.788,15.788,0,0,0,1.7.685.223.223,0,0,1-.071.434Zm12.435-.907a.223.223,0,0,1-.1-.422,15.9,15.9,0,0,0,1.584-.926.223.223,0,1,1,.247.372,16.4,16.4,0,0,1-1.629.952A.222.222,0,0,1,1305.753,1070.154Zm3.956-2.839a.223.223,0,0,1-.156-.383,16.012,16.012,0,0,0,1.237-1.356.223.223,0,1,1,.346.281,16.435,16.435,0,0,1-1.272,1.394A.222.222,0,0,1,1309.709,1067.315Zm2.931-3.889a.22.22,0,0,1-.105-.027.223.223,0,0,1-.091-.3,15.8,15.8,0,0,0,.774-1.665.223.223,0,0,1,.415.164,16.266,16.266,0,0,1-.8,1.712A.223.223,0,0,1,1312.639,1063.427Zm1.628-4.589a.235.235,0,0,1-.042,0,.223.223,0,0,1-.177-.261c.088-.458.156-.93.2-1.4.014-.139.026-.279.037-.418a.223.223,0,0,1,.445.033c-.01.143-.023.287-.038.43-.049.484-.119.969-.209,1.44A.223.223,0,0,1,1314.267,1058.837Z" transform="translate(-1288.054 -1052.641)" fill="#91b3fa"/><path d="M1241.749,1229.672a.221.221,0,0,1-.131-.043c-.243-.177-.484-.363-.715-.553a.223.223,0,1,1,.282-.345c.225.184.459.365.7.538a.223.223,0,0,1-.132.4Z" transform="translate(-1240.82 -1213.493)" fill="#91b3fa"/></g><g transform="translate(3.873 3.731)"><path d="M1213.08,870.819a.193.193,0,0,0,.214.066l2.231-.742a10.241,10.241,0,0,0,2.871,1.665l.466,2.3a.193.193,0,0,0,.164.153l2.8.372a.193.193,0,0,0,.2-.1l1.052-2.1a10.242,10.242,0,0,0,3.207-.855l1.96,1.3a.193.193,0,0,0,.224-.008l2.24-1.714a.193.193,0,0,0,.066-.214l-.742-2.231a10.246,10.246,0,0,0,1.665-2.871l2.3-.466a.193.193,0,0,0,.153-.164l.372-2.8a.193.193,0,0,0-.105-.2l-2.1-1.052a10.235,10.235,0,0,0-.856-3.207l1.3-1.96a.193.193,0,0,0-.008-.224l-1.714-2.24a.193.193,0,0,0-.214-.066l-2.232.742a10.241,10.241,0,0,0-2.871-1.665l-.466-2.3a.194.194,0,0,0-.164-.153l-2.8-.372a.193.193,0,0,0-.2.1l-1.052,2.1a10.24,10.24,0,0,0-3.207.855l-1.96-1.3a.193.193,0,0,0-.224.008l-2.24,1.714a.193.193,0,0,0-.066.214l.742,2.231a10.239,10.239,0,0,0-1.665,2.871l-2.3.466a.193.193,0,0,0-.153.164l-.372,2.8a.193.193,0,0,0,.1.2l2.1,1.053a10.249,10.249,0,0,0,.855,3.207l-1.3,1.96a.193.193,0,0,0,.007.224Z" transform="translate(-1209.596 -849.71)" fill="#91b3fa"/><g transform="translate(9.625 9.625)"><path d="M1359.268,1002.227a2.847,2.847,0,1,1,.331-.019A2.9,2.9,0,0,1,1359.268,1002.227Zm.01-5.01a2.205,2.205,0,0,0-.253.015,2.17,2.17,0,1,0,.5,4.311h0a2.17,2.17,0,0,0-.244-4.326Z" transform="translate(-1356.434 -996.548)" fill="#bdd0fb"/></g><path d="M1298.643,944.589a7.244,7.244,0,0,1-2.353-.394l-.081-.029.226-.63a6.527,6.527,0,0,0,1.339.325h0a6.429,6.429,0,0,0,4.511-1.076c.093-.064.185-.13.275-.2a6.429,6.429,0,0,0,2.483-4.286,6.551,6.551,0,0,0,.058-.868,6.472,6.472,0,0,0-12.888-.84,6.465,6.465,0,0,0,.47,3.415l-.614.265a7.141,7.141,0,1,1,13.7-2.842,7.285,7.285,0,0,1-.063.958,7.143,7.143,0,0,1-7.064,6.2Z" transform="translate(-1286.119 -925.023)" fill="#bdd0fb"/></g></g><g transform="translate(54.463 92.066)"><path d="M26.333,0h0A26.333,26.333,0,0,1,52.665,26.333V90.921a0,0,0,0,1,0,0H0a0,0,0,0,1,0,0V26.333A26.333,26.333,0,0,1,26.333,0Z" transform="translate(13.378)" fill="url(#b)"/><path d="M26.333,0h0A26.333,26.333,0,0,1,52.665,26.333V90.921a0,0,0,0,1,0,0H0a0,0,0,0,1,0,0V26.333A26.333,26.333,0,0,1,26.333,0Z" transform="translate(0)" fill="url(#c)"/><g transform="translate(3.196 3.96)"><path d="M1369.618,1929.284a.334.334,0,0,1-.335-.334V1922.5a6.362,6.362,0,0,1,6.45-6.254h10.114a.335.335,0,1,1,0,.669h-10.114a5.692,5.692,0,0,0-5.781,5.585v6.451A.335.335,0,0,1,1369.618,1929.284Z" transform="translate(-1369.283 -1916.245)" fill="url(#d)"/><path d="M1369.618,2172.52a.335.335,0,0,1-.335-.335v-2.628a.335.335,0,1,1,.669,0v2.628A.335.335,0,0,1,1369.618,2172.52Z" transform="translate(-1369.283 -2152.641)" fill="url(#e)"/></g></g><g transform="translate(3.154 125.396)"><path d="M22.69,0h0A22.69,22.69,0,0,1,45.38,22.69V57.461a0,0,0,0,1,0,0H0a0,0,0,0,1,0,0V22.69A22.69,22.69,0,0,1,22.69,0Z" transform="translate(13.378)" fill="url(#f)"/><path d="M22.69,0h0A22.69,22.69,0,0,1,45.38,22.69V57.461a0,0,0,0,1,0,0H0a0,0,0,0,1,0,0V22.69A22.69,22.69,0,0,1,22.69,0Z" transform="translate(0)" fill="url(#g)"/><g transform="translate(3.411 2.69)"><path d="M579.328,2419.085a.335.335,0,0,1-.335-.335v-6.81c0-3.63,3.387-6.584,7.55-6.584h11.933a.335.335,0,1,1,0,.669H586.543c-3.794,0-6.881,2.653-6.881,5.915v6.81A.335.335,0,0,1,579.328,2419.085Z" transform="translate(-578.993 -2405.357)" fill="#91b3fa"/><path d="M579.328,2675.864a.335.335,0,0,1-.335-.334v-2.775a.335.335,0,0,1,.669,0v2.775A.334.334,0,0,1,579.328,2675.864Z" transform="translate(-578.993 -2654.916)" fill="#91b3fa"/></g></g><g transform="translate(113.557 124.481)"><path d="M22.69,0h0A22.69,22.69,0,0,1,45.38,22.69V58.376a0,0,0,0,1,0,0H0a0,0,0,0,1,0,0V22.69A22.69,22.69,0,0,1,22.69,0Z" transform="translate(13.378)" fill="url(#h)"/><path d="M22.69,0h0A22.69,22.69,0,0,1,45.38,22.69V58.376a0,0,0,0,1,0,0H0a0,0,0,0,1,0,0V22.69A22.69,22.69,0,0,1,22.69,0Z" transform="translate(0)" fill="url(#i)"/><g transform="translate(3.412 2.738)"><path d="M2286.053,2406.074a.334.334,0,0,1-.334-.334v-6.918c0-3.685,3.387-6.683,7.55-6.683H2305.2a.334.334,0,0,1,0,.669h-11.932c-3.794,0-6.881,2.7-6.881,6.014v6.918A.335.335,0,0,1,2286.053,2406.074Z" transform="translate(-2285.719 -2392.138)" fill="#91b3fa"/><path d="M2286.053,2666.94a.335.335,0,0,1-.334-.334v-2.819a.335.335,0,0,1,.669,0v2.819A.335.335,0,0,1,2286.053,2666.94Z" transform="translate(-2285.719 -2645.669)" fill="#91b3fa"/></g></g><g transform="translate(6.106 93.905)"><path d="M582.478,2263.863c.02-.008,10.6-18.538,12.03-20.281a1.109,1.109,0,0,1,.99-.4l2.953.352,3.47,7.506-5.78-3.366c.572,3.955-6.853,9.834-9.4,11.979a.585.585,0,0,0-.046.852l1.017,1.064a11.68,11.68,0,0,1-5.769,3.281Z" transform="translate(-581.289 -2219.698)" fill="url(#j)"/><path d="M577.815,2515.047a1.5,1.5,0,0,1,.869.787.661.661,0,0,1-.249.762c-1.068.765-4.593,3.237-6.219,3.721a.184.184,0,0,1-.23-.217,5.86,5.86,0,0,1,1.223-2.237l-.078.158a.226.226,0,0,0,.313.3A17.409,17.409,0,0,0,577.815,2515.047Z" transform="translate(-571.981 -2473.749)" fill="url(#k)"/><path d="M648.365,2298.286c.018-.011,1.605-3.836,1.623-3.847a67.339,67.339,0,0,1,6.054-18.448,1.108,1.108,0,0,1,.888-.59l2.963-.253,4.917,6.648-6.342-2.127c1.361,3.758-4.721,11.018-6.781,13.634a.585.585,0,0,0,.127.844l1.211.836a11.677,11.677,0,0,1-4.986,4.38Z" transform="translate(-643.055 -2249.573)" fill="url(#l)"/><path d="M646.738,2570.993a1.5,1.5,0,0,1,1.01.6.661.661,0,0,1-.089.8c-.891.966-3.843,4.1-5.337,4.9a.184.184,0,0,1-.269-.166,5.857,5.857,0,0,1,.745-2.438l-.044.17a.226.226,0,0,0,.367.229A17.415,17.415,0,0,0,646.738,2570.993Z" transform="translate(-637.459 -2526.027)" fill="url(#m)"/><g transform="translate(11.85 24.056)"><path d="M771.628,2252.111s2.681,3.987,2.9,5.806-.741,2.448-3.547,2.68c-8.35.69-12.466-1.812-12.466-1.812-.571-3.642-.978-4.569-5.748-6.549,0,0,6.034.479,7.248.008S771.628,2252.111,771.628,2252.111Z" transform="translate(-752.768 -2251.993)" fill="url(#n)"/></g><g transform="translate(15.475 0)"><path d="M870.278,1891.138a4.288,4.288,0,0,1,2.424.656c.526.535,2.143-.161,2.92,1.019a1.609,1.609,0,0,0,1.833.672c1.732-.549,4.626-.938,6.4,1.661,1.357,1.984.669,3.33-.334,4.174a1.8,1.8,0,0,0-.3,2.473c.564.732.785,1.79-.255,3.227-2.33,3.22-8.246-.828-8.246-.828l-5.478-9.465Z" transform="translate(-865.233 -1890.734)" fill="url(#o)"/><path d="M850.928,2039.677a61.211,61.211,0,0,1-4.659-4.941,4.178,4.178,0,0,1-.707-3.76,51.908,51.908,0,0,1,2.062-5.193c.174-.584,3.675-.56,3.675-.56s6.888,4.47,9.594,12.043l-3.039.946a35.525,35.525,0,0,0-3.575-4.936s3.075,4.062,3.183,5.725Z" transform="translate(-842.943 -2016.032)" fill="url(#f)"/><path d="M873.039,1964.751c.037.121.95,3.15,1.022,3.213a5.111,5.111,0,0,0,2.913-.455l-1.856-4.106Z" transform="translate(-868.781 -1958.263)" fill="url(#q)"/><path d="M831.025,1920.882a5.644,5.644,0,0,0,.114,3.787c.764,2.284,2.013,2.483,2.8,1.918a4.5,4.5,0,0,0,1.944-3.643C836.015,1920.874,831.921,1918.981,831.025,1920.882Z" transform="translate(-829.28 -1917.796)" fill="url(#r)"/><path d="M813.139,1890s-1.38-3.092-3.45-1.166l-.16.8s-1.971-.562-1.323-2.348a3.62,3.62,0,0,1,5.112-1.84c2.108,1.158,2.825,2.521,2.712,4.148s-1.332,1.07-1.332,1.07-.235-1.2-.807-1.408-.56.692-.56.692Z" transform="translate(-808.075 -1884.986)" fill="url(#s)"/><path d="M889.028,1938.606s-.719-1.585.288-1.642.6,1.528.4,2.106Z" transform="translate(-883.489 -1933.556)" fill="url(#t)"/><path d="M839.156,2212.539l2.346-2.552,2.709.729a15.663,15.663,0,0,0,4.966,0l1.808-.49,4.085-1.271.642,1.813a1.091,1.091,0,0,1-.4,1.254,7.193,7.193,0,0,1-1.032.643c-.538.235-12.392.074-12.392.074Z" transform="translate(-837.119 -2187.72)" fill="url(#u)"/></g><g transform="translate(4.046 16.033)"><path d="M796.569,2265.11h-.025l-10.789-.012a.483.483,0,1,1,0-.966l10.789.011a.483.483,0,0,1,.024.965Z" transform="translate(-775.338 -2255.314)" fill="#91b3fa"/><path d="M634.421,2129.589h8.985a1.712,1.712,0,0,1,1.549.982l4.154,8.809H637.943a1.04,1.04,0,0,1-.968-.658l-3.221-8.151A.718.718,0,0,1,634.421,2129.589Z" transform="translate(-633.703 -2129.589)" fill="#91b3fa"/><ellipse cx="0.708" cy="1.151" rx="0.708" ry="1.151" transform="matrix(0.952, -0.306, 0.306, 0.952, 5.348, 3.855)" fill="#bdd0fb"/></g></g><g transform="translate(59.344)"><g transform="translate(51.518 1.928)"><path d="M2186.739,499.158a37.057,37.057,0,0,1,18.6-.693c4.309,1.139,5.738,1.994,9.552,2.424,3.39.382,12.4-2.36,11.246-.3-1.5,2.689-1.093,13.223,1.153,17.614.326.639-10.343,2.22-16.807,1.039-8.913-1.628-11.782-4.359-17.634-3.117a17.38,17.38,0,0,0-6.062,2.6C2187.382,512.232,2186.142,505.652,2186.739,499.158Z" transform="translate(-2186.501 -496.735)" fill="url(#v)"/><path d="M2185.827,574.2a.335.335,0,0,1-.334-.335V484.75a.334.334,0,1,1,.669,0v89.114A.334.334,0,0,1,2185.827,574.2Z" transform="translate(-2185.493 -484.416)" fill="#26264f"/></g><g transform="translate(0 0)"><path d="M1606.009,1792.715a.53.53,0,0,1,.014-.14,7.319,7.319,0,0,1,3.559-4.194l1.375.108c.791,2.444,1.3,3.637,1.174,4.3,0,.019-.009.036-.014.055A32.676,32.676,0,0,1,1606.009,1792.715Z" transform="translate(-1592.474 -1700.982)" fill="url(#w)"/><path d="M1612.373,1854.637a.6.6,0,0,1-.436.441,18.867,18.867,0,0,1-5.257-.074.5.5,0,0,1-.415-.5A32.656,32.656,0,0,0,1612.373,1854.637Z" transform="translate(-1592.714 -1762.771)" fill="url(#x)"/><path d="M1643.244,1755.725l.6,2.9a.474.474,0,0,0,.405.39,4.026,4.026,0,0,0,.933-.015.6.6,0,0,0,.472-.7l-.419-2.574Z" transform="translate(-1627.269 -1670.466)" fill="url(#y)"/><path d="M1839.839,1850.82a7.938,7.938,0,0,1-2.622-.375c0,.146,0,.295,0,.449a.29.29,0,0,0,.277.3l8.066-.052a.368.368,0,0,0,.3-.536C1844.8,1850.688,1842.11,1850.883,1839.839,1850.82Z" transform="translate(-1808.528 -1758.978)" fill="url(#z)"/><path d="M1846.148,1796.474a.368.368,0,0,0-.032-.061,10.281,10.281,0,0,0-6.112-3.837l-1.72-.054a8.253,8.253,0,0,0-.78,3.8,7.942,7.942,0,0,0,2.622.375C1842.4,1796.757,1845.09,1796.561,1846.148,1796.474Z" transform="translate(-1808.796 -1704.851)" fill="url(#aa)"/><path d="M1844.542,1746.812c.019.128.255,2.077.346,2.832a.374.374,0,0,0,.316.338,3.942,3.942,0,0,0,1.181-.018.509.509,0,0,0,.385-.511v-3.058Z" transform="translate(-1815.373 -1661.748)" fill="url(#ab)"/><path d="M1636.747,1174.918s-2.752,24.463-1.223,39.752a11.83,11.83,0,0,0,2.752-.306s2.86-23.918,3.785-30.762a.23.23,0,0,1,.454-.014c1.141,5.758,5.625,28.339,6.158,30.471a3.812,3.812,0,0,0,2.752,0s-2.446-32.719-4.281-38.529Z" transform="translate(-1619.623 -1127.73)" fill="url(#ac)"/><path d="M1576.228,733.252a72.392,72.392,0,0,1,17.695.025,3.863,3.863,0,0,1,3.261,4.333l-.774,5.733s-2.446,13.149-4.281,18.959c0,0-7.033,1.223-10.4-.612,0,0-2.752-16.512-4.281-18.958C1577.451,742.731,1575.922,736.31,1576.228,733.252Z" transform="translate(-1564.608 -714.502)" fill="url(#ad)"/><path d="M1683.452,613.59l-1.157,7.828s3.234,1.486,5.5-.064l-.488-5.525Z" transform="translate(-1663.76 -603.195)" fill="url(#ae)"/><g transform="translate(17.482 2.103)"><path d="M1697.046,528.868c.036.066.734,4.014,1.164,6.457a1.714,1.714,0,0,1-1.588,2.008l-.937.055a3.34,3.34,0,0,1-3.5-2.829l-.677-4.426S1696.162,527.263,1697.046,528.868Z" transform="translate(-1689.853 -525.673)" fill="url(#af)"/><path d="M1666.885,491.553a1.314,1.314,0,0,1,.093-1.929,1.852,1.852,0,0,1,2.21-.32.617.617,0,0,0,.726-.144.392.392,0,0,1,.366-.136.577.577,0,0,0,.652-.5,1.521,1.521,0,0,1,1.343-1.4c1.8-.348,2.7,1.454,2.666,2.72s-2.005,1.532-3.125,1.322a2.148,2.148,0,0,0-1.853.963.6.6,0,0,0-.117.51l.284,1.223a5.644,5.644,0,0,1-.667,1.093,1.208,1.208,0,0,1-.65.417c-.336-.625-1.274-.731-1.711-.745a.6.6,0,0,1-.432-.2,1.308,1.308,0,0,1,.142-2.046A.594.594,0,0,0,1666.885,491.553Z" transform="translate(-1666.239 -487.082)" fill="url(#ag)"/><path d="M1677.625,598.579s-.039-2.209-.933-2.416-1.858.439-1.094,1.761C1676.55,599.568,1677.625,598.579,1677.625,598.579Z" transform="translate(-1674.726 -588.977)" fill="url(#ah)"/></g><path d="M1416.377,538.236s-26.256-7.147-13.219-25.526l.882,1.249s-3.928,12.449,9.084,13.631C1413.124,527.59,1416.494,536.282,1416.377,538.236Z" transform="translate(-1399.527 -508.927)" fill="url(#ai)"/><path d="M1453.315,458.877s-.3-3.549,1.479-3.844,2.366,1.479,2.661,2.366-2.661,2.661-3.253,2.661S1453.315,458.877,1453.315,458.877Z" transform="translate(-1449.773 -455)" fill="url(#aj)"/><path d="M1872.462,794.282s3.394,13.431,20.416-1.365l-1.3-.8s-14.987,10.633-17.628-7.5C1873.945,784.615,1872.462,792.65,1872.462,794.282Z" transform="translate(-1841.463 -763.01)" fill="url(#ak)"/><path d="M2164.913,852.226s3.56.058,3.737-1.732-1.633-2.262-2.538-2.5-2.478,2.833-2.438,3.423S2164.913,852.226,2164.913,852.226Z" transform="translate(-2113.586 -822.225)" fill="url(#al)"/></g></g><g transform="translate(112.233 47.765)"><path d="M2600.227,2347.08c1.521.131,4.16.345,6.241.436a6,6,0,0,0,2.386-.233c0,.047,0,.091,0,.132a.43.43,0,0,1-.409.406,73.141,73.141,0,0,1-8.172.008.306.306,0,0,1-.249-.46A2.414,2.414,0,0,1,2600.227,2347.08Z" transform="translate(-2574.641 -2270.712)" fill="url(#am)"/><path d="M2610.042,2303.736c-2.081-.092-4.721-.306-6.241-.437,1.5-1.834,6.241-3.071,6.241-3.071h1.34a5.622,5.622,0,0,1,1.045,3.274A6.009,6.009,0,0,1,2610.042,2303.736Z" transform="translate(-2578.215 -2226.931)" fill="url(#an)"/><path d="M2687.261,2266.843l-.125,2.482a.566.566,0,0,1-.484.533,2.2,2.2,0,0,1-1.007-.083.67.67,0,0,1-.451-.515l-.433-2.417Z" transform="translate(-2653.869 -2195.735)" fill="url(#ao)"/><g transform="translate(45.04 71.873)"><path d="M2927.548,2376.009a1.308,1.308,0,0,0,1.083-1.035l0,.012a1.18,1.18,0,0,1-.578,1.263,3.012,3.012,0,0,1-1.6.324,1.48,1.48,0,0,1-1.2-.715l0-.006A3.173,3.173,0,0,0,2927.548,2376.009Z" transform="translate(-2923.638 -2368.651)" fill="url(#ap)"/><path d="M2901.4,2278.507h1.1c1.684-.044,2.741,4.545,3.087,6.323a1.308,1.308,0,0,1-1.083,1.035,3.174,3.174,0,0,1-2.294-.157,16.189,16.189,0,0,1-1.578-5.135A1.918,1.918,0,0,1,2901.4,2278.507Z" transform="translate(-2900.595 -2278.507)" fill="url(#aq)"/></g><path d="M2893.942,2243.362l.614,2.441a.663.663,0,0,1-.345.751,2.354,2.354,0,0,1-1.271.308.554.554,0,0,1-.451-.369l-.9-2.569Z" transform="translate(-2847.138 -2173.792)" fill="url(#ar)"/><path d="M2598.088,1742.936s5.485,34.288,5.4,34.477a4.562,4.562,0,0,0,3.166.088s-.5-18.33-1.658-25.358c0,0,9.362,16.383,12.335,24.547a7.431,7.431,0,0,0,2.834-1.03s-10.08-29.489-12.769-33.417Z" transform="translate(-2572.877 -1705.52)" fill="url(#as)"/><path d="M2646.189,1834.157a.22.22,0,0,1-.187-.1l-2-3.194-1.415-.285a.22.22,0,0,1,.087-.432l1.509.3a.219.219,0,0,1,.143.1l2.051,3.274a.22.22,0,0,1-.07.3A.218.218,0,0,1,2646.189,1834.157Z" transform="translate(-2614.293 -1787.655)" fill="url(#at)"/><path d="M2213.5,1240.572a36.761,36.761,0,0,1,5.953,1.856,2.056,2.056,0,0,1,1.007,1.012,14.157,14.157,0,0,0,6.594,6.938,10.756,10.756,0,0,0-1.863,4.911c-2.346-1.746-4.372-4.663-5.345-9.446a1.908,1.908,0,0,1-1.664-.046c-.488-.237-1.052-.573-1.475-.838a1.933,1.933,0,0,1-.857-1.151,6.672,6.672,0,0,1-.066-1.783l-1.9-.589A.677.677,0,0,1,2213.5,1240.572Z" transform="translate(-2213.46 -1236.732)" fill="url(#au)"/><path d="M2392.418,1391.492a10.759,10.759,0,0,1,1.863-4.911c2.427,1.1,5.584,1.447,9.6.054a4.276,4.276,0,0,1,1.149-.227c2.14-.126,9.193-.354,15.028,1.574a4.534,4.534,0,0,1,2.736,2.49c1.579,3.623,4.135,11.873-2.96,16.038a17.637,17.637,0,0,0-1.713-3.24c1.143-1.927,1.481-4.559-.547-7.987a50.168,50.168,0,0,0-2.317,12.395,5.545,5.545,0,0,0,.434,2.479l.036.085a.293.293,0,0,1-.206.4,33.659,33.659,0,0,1-9.39.551.512.512,0,0,1-.457-.391c-1.942-8.184-1.947-13.766-1.471-17.3C2402.391,1393.913,2396.835,1394.78,2392.418,1391.492Z" transform="translate(-2380.688 -1372.934)" fill="url(#av)"/><path d="M2569.033,1422.121l-.03,0a.22.22,0,0,1-.189-.248,13.565,13.565,0,0,1,1.451-5.119.22.22,0,0,1,.372.236,13.52,13.52,0,0,0-1.386,4.94A.219.219,0,0,1,2569.033,1422.121Z" transform="translate(-2545.521 -1401.27)" fill="url(#aw)"/><path d="M2665.869,1314.818s.4,4.272.76,5.536a.432.432,0,0,1-.2.493,4.183,4.183,0,0,1-4.033-.063.9.9,0,0,1-.5-.846l.175-4.128Z" transform="translate(-2632.499 -1306.111)" fill="url(#ax)"/><g transform="translate(27.807 0)"><path d="M2642.414,1231.433a19.042,19.042,0,0,0-1.379,4.527c-.087,1.558-.423,2.569,1.379,2.883a3.83,3.83,0,0,0,4.142-2.136s1.288-2.392,1-3.371S2642.414,1231.433,2642.414,1231.433Z" transform="translate(-2640.739 -1228.192)" fill="url(#ay)"/><path d="M2642.892,1189.389l-.1-.045a.248.248,0,0,1-.121-.34c.254-.491.75-1.616.11-1.878-.824-.338-4.091-1-4.8-2.163a2.157,2.157,0,0,1,.825-2.961.124.124,0,0,1,.162.053l.075.142a.122.122,0,0,0,.226-.023.122.122,0,0,1,.22-.032,3.31,3.31,0,0,0,2.366,1.2c2.223.41,3.692,1.31,3.729,2.846a.123.123,0,0,0,.19.1c.164-.1.426-.147.777.148.61.513.361,1.845-.978,2.94a.122.122,0,0,0,.006.2c.243.158.6.534-.333,1.035a3.154,3.154,0,0,1-1.972.43.122.122,0,0,1-.1-.147l.3-1.35a.122.122,0,0,0-.12-.149Z" transform="translate(-2637.692 -1181.99)" fill="url(#az)"/><path d="M2716.181,1278.422s.493-1.9,1.344-1.365-.442,2.125-1.125,2.2Z" transform="translate(-2711.036 -1270.738)" fill="url(#ba)"/></g><path d="M2261.284,1270.5a.219.219,0,0,1-.171-.081,12.839,12.839,0,0,0-1.752-1.87.888.888,0,0,1-.484-.539.68.68,0,0,1,.128-.545.22.22,0,0,1,.226-.093l1.615.324a.221.221,0,0,1,.1.049l.858.737a.22.22,0,1,1-.287.334l-.815-.7-1.4-.28a.139.139,0,0,0,0,.072c.018.076.115.168.272.256a13.6,13.6,0,0,1,1.877,1.976.22.22,0,0,1-.171.359Z" transform="translate(-2255.886 -1261.77)" fill="url(#bb)"/><path d="M2633.591,1650.948l-5.832-.127s5.086-1.438,5.4-1.046a17.853,17.853,0,0,0,4.88-4.985,17.585,17.585,0,0,1,1.712,3.24C2638.2,1648.939,2636.17,1650.519,2633.591,1650.948Z" transform="translate(-2600.603 -1614.455)" fill="url(#bc)"/><path d="M2615.686,1723.333s.12,2.324-2.93,1.986a15.357,15.357,0,0,1-4.334-1.729S2615.4,1723.572,2615.686,1723.333Z" transform="translate(-2582.533 -1687.85)" fill="url(#bd)"/><g transform="translate(3.423 23.08)"><path d="M2484.574,1714.32h-.033l-14.5-.016a.642.642,0,1,1,0-1.284l14.5.016a.642.642,0,0,1,.032,1.284Z" transform="translate(-2456.039 -1701.293)" fill="url(#be)"/><path d="M2266.646,1534.1h12.076a2.3,2.3,0,0,1,2.082,1.306l5.583,11.713H2271.38a1.4,1.4,0,0,1-1.3-.875l-4.329-10.839A.955.955,0,0,1,2266.646,1534.1Z" transform="translate(-2265.681 -1534.103)" fill="url(#bf)"/><path d="M2382.722,1608.667c.262.8.069,1.586-.432,1.745s-1.117-.364-1.379-1.168-.069-1.586.432-1.745S2382.461,1607.862,2382.722,1608.667Z" transform="translate(-2373.249 -1602.661)" fill="#91b3fa"/></g></g><g transform="translate(111.764 136.264)"><path d="M2229.865,2530.319c.477,5.267,2.4,37.6-21.488,44.378-.723.206-1.594-.265-1.607-.867-.082-3.832.615-15.872,11.216-28.671,7.649-9.234,10.519-13.48,11.434-14.943A.266.266,0,0,1,2229.865,2530.319Z" transform="translate(-2206.324 -2530.134)" fill="#91b3fa"/><g transform="translate(0 10.404)"><path d="M2200.49,2722.592a.446.446,0,0,1-.328-.749c12.673-13.743,19.027-31.4,19.213-32.525a.446.446,0,0,1,.87-.159c.037.111.135.407-1.147,3.642-.69,1.74-1.88,4.543-3.632,8.014a97.307,97.307,0,0,1-14.648,21.634A.446.446,0,0,1,2200.49,2722.592Zm18.908-33.155h0Zm0,0h0Zm-.018-.139Z" transform="translate(-2200.044 -2688.853)" fill="#bdd0fb"/></g></g><g transform="translate(112.014 165.521)"><path d="M2243.187,2976.743c-2.037,3.313-15.136,23.208-32.2,16.689-.517-.2-.823-.858-.565-1.218,1.639-2.294,7.349-9.081,19.229-11.956a115.638,115.638,0,0,0,13.314-3.771C2243.095,2976.438,2243.257,2976.63,2243.187,2976.743Z" transform="translate(-2209.98 -2976.479)" fill="#bdd0fb"/><path d="M2205.391,3056.02a.446.446,0,0,1-.081-.885,72.072,72.072,0,0,0,25.57-10.669.446.446,0,0,1,.783.405c-.168.5-4.208,2.943-8.005,4.833a71.687,71.687,0,0,1-18.185,6.309A.453.453,0,0,1,2205.391,3056.02Zm25.427-11.433h0Z" transform="translate(-2204.946 -3039.838)" fill="url(#bg)"/></g></svg>