<svg xmlns="http://www.w3.org/2000/svg" xmlns:xlink="http://www.w3.org/1999/xlink" width="72" height="64" viewBox="0 0 72 64"><defs><clipPath id="a"><rect y="-1" width="72" height="64" fill="none"/></clipPath><filter id="b" x="0" y="1" width="71.571" height="63" filterUnits="userSpaceOnUse"><feOffset dx="3" dy="3" input="SourceAlpha"/><feGaussianBlur result="c"/><feFlood/><feComposite operator="in" in2="c"/><feComposite in="SourceGraphic"/></filter></defs><g transform="translate(0 1)" clip-path="url(#a)" style="isolation:isolate"><g transform="translate(-386 -5792)"><g transform="matrix(1, 0, 0, 1, 386, 5791)" filter="url(#b)"><path d="M34.286,32C15.348,32,0,44.469,0,59.857a24.725,24.725,0,0,0,7.634,17.5C5.96,84.112.362,90.125.295,90.192a1.065,1.065,0,0,0-.2,1.165A1.049,1.049,0,0,0,1.071,92,30.629,30.629,0,0,0,19.9,85.116a40.845,40.845,0,0,0,14.384,2.6c18.937,0,34.286-12.469,34.286-27.857S53.223,32,34.286,32Z" transform="translate(0 -31)" fill="#4ac8ff"/></g></g></g></svg>