<svg xmlns="http://www.w3.org/2000/svg" width="140" height="140" viewBox="0 0 140 140"><g transform="translate(-905 -3672)"><circle cx="70" cy="70" r="70" transform="translate(905 3672)" fill="#fff"/><g transform="translate(117.478 3161.335)"><g transform="translate(839.856 526.147)"><circle cx="8.256" cy="8.256" r="8.256" transform="translate(9.41)" fill="none" stroke="#ff2d22" stroke-linejoin="round" stroke-width="3"/><path d="M852.09,572.208a17.666,17.666,0,1,1,35.333,0Z" transform="translate(-852.09 -533.45)" fill="none" stroke="#ff2d22" stroke-linejoin="round" stroke-width="3"/><path d="M871.366,555.308l1.359,3.288h3.106" transform="translate(-857.048 -533.647)" fill="none" stroke="#ff2d22" stroke-linejoin="round" stroke-width="3"/><line y1="13.809" x2="2.484" transform="translate(13.193 24.949)" fill="none" stroke="#ff2d22" stroke-linejoin="round" stroke-width="3"/><path d="M878.835,555.308l-1.359,3.288h-3.106" transform="translate(-857.821 -533.647)" fill="none" stroke="#ff2d22" stroke-linejoin="round" stroke-width="3"/><line x1="2.484" y1="13.809" transform="translate(19.656 24.949)" fill="none" stroke="#ff2d22" stroke-linejoin="round" stroke-width="3"/></g><g transform="translate(804.522 573.036)"><circle cx="8.256" cy="8.256" r="8.256" transform="translate(6.023 10.774) rotate(-40.726)" fill="none" stroke="#ff2d22" stroke-linejoin="round" stroke-width="3"/><path d="M804.522,639.893a17.667,17.667,0,1,1,35.334,0Z" transform="translate(-804.522 -597.748)" fill="none" stroke="#ff2d22" stroke-linejoin="round" stroke-width="3"/><path d="M823.8,622.993l1.359,3.288h3.106" transform="translate(-809.48 -597.945)" fill="none" stroke="#ff2d22" stroke-linejoin="round" stroke-width="3"/><line y1="13.809" x2="2.484" transform="translate(13.194 28.336)" fill="none" stroke="#ff2d22" stroke-linejoin="round" stroke-width="3"/><path d="M831.268,622.993l-1.359,3.288H826.8" transform="translate(-810.253 -597.945)" fill="none" stroke="#ff2d22" stroke-linejoin="round" stroke-width="3"/><line x1="2.484" y1="13.809" transform="translate(19.656 28.336)" fill="none" stroke="#ff2d22" stroke-linejoin="round" stroke-width="3"/></g><g transform="translate(875.188 573.004)"><circle cx="8.256" cy="8.256" r="8.256" transform="translate(5.99 11.676) rotate(-45)" fill="none" stroke="#ff2d22" stroke-linejoin="round" stroke-width="3"/><path d="M899.657,639.893a17.667,17.667,0,1,1,35.334,0Z" transform="translate(-899.657 -597.715)" fill="none" stroke="#ff2d22" stroke-linejoin="round" stroke-width="3"/><path d="M918.933,622.993l1.359,3.288H923.4" transform="translate(-904.615 -597.912)" fill="none" stroke="#ff2d22" stroke-linejoin="round" stroke-width="3"/><line y1="13.809" x2="2.484" transform="translate(13.194 28.369)" fill="none" stroke="#ff2d22" stroke-linejoin="round" stroke-width="3"/><path d="M926.4,622.993l-1.359,3.288h-3.106" transform="translate(-905.388 -597.912)" fill="none" stroke="#ff2d22" stroke-linejoin="round" stroke-width="3"/><line x1="2.484" y1="13.809" transform="translate(19.656 28.369)" fill="none" stroke="#ff2d22" stroke-linejoin="round" stroke-width="3"/></g><g transform="translate(846.684 575.166)"><path d="M883.358,623.618,872.379,612.64h-.117l-10.979,10.979" transform="translate(-861.283 -597.412)" fill="none" stroke="#ff2d22" stroke-linecap="round" stroke-linejoin="round" stroke-width="3"/><line y2="15.228" transform="translate(11.037)" fill="none" stroke="#ff2d22" stroke-linecap="round" stroke-linejoin="round" stroke-width="3"/></g></g></g></svg>