<svg xmlns="http://www.w3.org/2000/svg" width="142.5" height="140" viewBox="0 0 142.5 140"><g transform="translate(-514.5 -3669)"><path d="M70,0A70,70,0,1,1,0,70,70,70,0,0,1,70,0Z" transform="translate(517 3669)" fill="#fff"/><g transform="translate(166.962 3551.308)"><circle cx="14.194" cy="14.194" r="14.194" transform="translate(349.038 208.884)" fill="#fff" stroke="#ff2d22" stroke-linecap="round" stroke-linejoin="round" stroke-width="3"/><circle cx="11.512" cy="11.512" r="11.512" transform="translate(425.037 130.692)" fill="#fff" stroke="#ff2d22" stroke-linecap="round" stroke-linejoin="round" stroke-width="3"/><path d="M426.469,206.838l-10.419,10.42c-43.77-24.667-44.508-65.347-44.508-65.347s40.68.738,65.347,44.508Z" fill="#fff" stroke="#ff2d22" stroke-linecap="round" stroke-linejoin="round" stroke-width="3"/><path d="M393.995,184.2a6.954,6.954,0,1,0,0-9.834A6.954,6.954,0,0,0,393.995,184.2Z" fill="#fff" stroke="#ff2d22" stroke-linecap="round" stroke-linejoin="round" stroke-width="3"/><path d="M417.877,215.431l10.022,4.386,5.774-5.774,5.774-5.775-4.386-10.022" fill="#fff" stroke="#ff2d22" stroke-linecap="round" stroke-linejoin="round" stroke-width="3"/><path d="M418.337,172.829l-.046-.182s17.477-10.742,31.435,10.934c0,0-13.461-1.365-18.371,4.077h0A90.889,90.889,0,0,0,418.337,172.829Z" fill="#fff" stroke="#ff2d22" stroke-linecap="round" stroke-linejoin="round" stroke-width="3"/><path d="M392.279,198.887l-.182-.045s-10.742,17.477,10.934,31.435c0,0-1.366-13.461,4.077-18.372h0A90.8,90.8,0,0,1,392.279,198.887Z" fill="#fff" stroke="#ff2d22" stroke-linecap="round" stroke-linejoin="round" stroke-width="3"/><line x2="11.835" y2="11.835" transform="translate(440.363 220.732)" fill="none" stroke="#ff2d22" stroke-linecap="round" stroke-linejoin="round" stroke-width="3"/><line x2="8.233" y2="8.233" transform="translate(435.446 225.65)" fill="none" stroke="#ff2d22" stroke-linecap="round" stroke-linejoin="round" stroke-width="3"/><line x2="8.233" y2="8.233" transform="translate(445.28 215.815)" fill="none" stroke="#ff2d22" stroke-linecap="round" stroke-linejoin="round" stroke-width="3"/></g></g></svg>