<svg xmlns="http://www.w3.org/2000/svg" xmlns:xlink="http://www.w3.org/1999/xlink" width="40" height="40" viewBox="0 0 40 40"><defs><clipPath id="a"><rect x="-2" width="40" height="40" fill="none"/></clipPath></defs><g transform="translate(2)" clip-path="url(#a)" style="isolation:isolate"><path d="M66.4,10.405A10.011,10.011,0,0,1,60.339,8.37a10.107,10.107,0,0,1-3.816-6.09A10.2,10.2,0,0,1,56.329.39h-6.5V18.236l-.008,9.775a5.9,5.9,0,0,1-6.229,5.9,5.846,5.846,0,0,1-2.693-.829A5.905,5.905,0,0,1,45.773,22.4V15.771a12.749,12.749,0,0,0-1.876-.139,12.45,12.45,0,0,0-9.372,4.209,12.309,12.309,0,0,0,.552,16.924,12.706,12.706,0,0,0,1.175,1.03,12.441,12.441,0,0,0,7.645,2.6,12.749,12.749,0,0,0,1.876-.138,12.413,12.413,0,0,0,6.945-3.487,12.252,12.252,0,0,0,3.653-8.7l-.034-14.6A16.417,16.417,0,0,0,59.99,15.6a16.384,16.384,0,0,0,6.432,1.3V10.4s-.017,0-.019,0Z" transform="translate(-31.423 -0.39)" fill="#ffef00"/></g></svg>