<svg xmlns="http://www.w3.org/2000/svg" xmlns:xlink="http://www.w3.org/1999/xlink" width="72" height="64" viewBox="0 0 72 64"><defs><clipPath id="a"><rect x="-3" y="-1" width="72" height="64" fill="none"/></clipPath><filter id="b" x="3" y="1" width="63" height="63" filterUnits="userSpaceOnUse"><feOffset dx="3" dy="3" input="SourceAlpha"/><feGaussianBlur result="c"/><feFlood/><feComposite operator="in" in2="c"/><feComposite in="SourceGraphic"/></filter></defs><g transform="translate(3 1)" clip-path="url(#a)" style="isolation:isolate"><g transform="translate(-909 -5792)"><g transform="matrix(1, 0, 0, 1, 906, 5791)" filter="url(#b)"><path d="M38,8A30,30,0,1,0,68,38,29.995,29.995,0,0,0,38,8Zm0,54.194A24.194,24.194,0,1,1,62.194,38,24.187,24.187,0,0,1,38,62.194Zm7.476-12.629L35.206,42.1a1.461,1.461,0,0,1-.593-1.173V21.065a1.456,1.456,0,0,1,1.452-1.452h3.871a1.456,1.456,0,0,1,1.452,1.452V38.206l8.081,5.879a1.451,1.451,0,0,1,.315,2.032L47.508,49.25a1.462,1.462,0,0,1-2.032.315Z" transform="translate(-5 -7)" fill="#4ac8ff"/></g></g></g></svg>