<svg xmlns="http://www.w3.org/2000/svg" xmlns:xlink="http://www.w3.org/1999/xlink" width="72" height="64" viewBox="0 0 72 64"><defs><clipPath id="a"><rect x="-12" width="72" height="64" fill="none"/></clipPath><filter id="b" x="12" y="0" width="46.571" height="64" filterUnits="userSpaceOnUse"><feOffset dx="3" dy="3" input="SourceAlpha"/><feGaussianBlur result="c"/><feFlood/><feComposite operator="in" in2="c"/><feComposite in="SourceGraphic"/></filter></defs><g transform="translate(12)" clip-path="url(#a)" style="isolation:isolate"><g transform="translate(-1417 -5792)"><g transform="matrix(1, 0, 0, 1, 1405, 5792)" filter="url(#b)"><path d="M41.976,11.669,32.458,1.675A5.318,5.318,0,0,0,28.607,0H5.446A5.588,5.588,0,0,0,0,5.719V55.281A5.588,5.588,0,0,0,5.446,61H38.125a5.588,5.588,0,0,0,5.446-5.719V15.712a5.867,5.867,0,0,0-1.6-4.044ZM37.684,15.25H29.048V6.181ZM5.446,55.281V5.719H23.6V18.109a2.794,2.794,0,0,0,2.723,2.859h11.8V55.281ZM31.395,30.106l-5.978,6.276V31.93a2.328,2.328,0,0,0-2.269-2.383h-11.8A2.328,2.328,0,0,0,9.077,31.93V44.32A2.328,2.328,0,0,0,11.347,46.7h11.8a2.328,2.328,0,0,0,2.269-2.383V39.867l5.978,6.276a1.807,1.807,0,0,0,3.1-1.348V31.454a1.807,1.807,0,0,0-3.1-1.348Z" transform="translate(12)" fill="#4ac8ff"/></g></g></g></svg>