<svg xmlns="http://www.w3.org/2000/svg" xmlns:xlink="http://www.w3.org/1999/xlink" width="40" height="40" viewBox="0 0 40 40"><defs><clipPath id="a"><rect y="-6" width="40" height="40" fill="none"/></clipPath></defs><g transform="translate(0 6)" clip-path="url(#a)" style="isolation:isolate"><path d="M39.115,7.5l.05.323a5.04,5.04,0,0,0-3.447-3.479l-.035-.008C32.565,3.5,20.017,3.5,20.017,3.5S7.5,3.484,4.35,4.337A5.043,5.043,0,0,0,.879,7.789L.87,7.824A54.463,54.463,0,0,0,.922,27.5L.87,27.175a5.04,5.04,0,0,0,3.447,3.479l.035.008c3.115.838,15.666.838,15.666.838s12.515,0,15.666-.838a5.042,5.042,0,0,0,3.473-3.452l.008-.035a50.907,50.907,0,0,0,.833-9.3c0-.12,0-.242,0-.364s0-.245,0-.379A52.521,52.521,0,0,0,39.115,7.5Zm-23.1,16.013V11.5l10.443,6.015Z" transform="translate(0 -3.5)" fill="#ffef00"/></g></svg>